<svg width="56" height="56" viewBox="0 0 56 56" fill="none" xmlns="http://www.w3.org/2000/svg">
    <path d="M37.7222 4H18.2827C10.4046 4 4 10.4075 4 18.2808V37.7212C4 45.5935 10.4046 52.002 18.2827 52.002H37.7212C45.5925 52.002 52 45.5935 52 37.7212V18.2808C52.001 10.4075 45.5935 4 37.7222 4Z"
          fill="#E31836"/>
    <path d="M43.1545 33.9005L43.1366 34.1144C43.0683 34.9473 42.5464 35.7901 41.6798 35.7901C41.0173 35.7901 40.4845 35.5445 40.0497 35.0414C39.5278 34.4402 39.0584 33.7183 38.583 32.41C39.9289 27.8416 44.0814 13.2073 44.0814 13.2073H36.2013C36.2013 13.2073 35.4733 16.6388 34.8168 19.7604C34.7841 19.6841 34.7504 19.6088 34.7157 19.5365C34.0591 18.1332 33.0104 16.5734 31.8457 15.4771C29.8155 13.5687 27.4278 12.6388 24.5449 12.6388C20.5657 12.6388 17.1995 14.1104 14.5395 17.0141C11.8923 19.9 10.4939 23.6029 10.4939 27.7207C10.4939 32.307 11.8219 36.0743 14.4404 38.9126C17.1718 41.8787 20.4379 43.2602 24.7162 43.2602C27.2089 43.2602 29.5877 42.5195 31.7932 41.0607C33.2183 40.1199 34.5187 38.8166 35.7477 37.1241C36.2636 38.7948 36.7836 39.9366 37.4055 40.7913C38.4117 42.1709 39.919 42.9612 41.5402 42.9612C43.2277 42.9612 44.7648 42.0966 45.5541 40.7071C46.2532 39.4741 46.5385 37.9441 46.5385 35.4276V33.9005H43.1545ZM29.9452 36.826C28.7509 38.5749 27.1911 39.4979 25.4342 39.4979C23.3872 39.4979 21.8393 38.5809 20.6994 36.6853C19.504 34.7007 18.8989 31.7267 18.8989 27.8435C18.8989 24.2833 19.5407 21.4538 20.8054 19.4335C21.9938 17.537 23.4833 16.6517 25.4917 16.6517C27.2792 16.6517 28.6746 17.3944 29.8878 18.9948C31.1881 20.7121 32.2874 23.5494 33.0747 27.1969C32.0864 32.1278 31.1198 35.1087 29.9452 36.826Z"
          fill="white"/>
</svg>
