<svg width="56" height="56" viewBox="0 0 56 56" fill="none" xmlns="http://www.w3.org/2000/svg">
    <path d="M6.62667 3.9144C5.33587 4.22732 4.33453 5.28342 4.08419 6.61333C3.96685 7.22352 3.97467 48.435 4.09202 49.0687C4.28759 50.1404 4.95255 51.0166 5.94607 51.5016L6.54061 51.7989L27.8583 51.8224C48.8865 51.838 49.1915 51.838 49.6922 51.6894C50.6388 51.3999 51.3038 50.8132 51.7575 49.8823L52 49.3738V27.8214V6.26912L51.7497 5.7528C51.4524 5.15043 50.897 4.55589 50.3493 4.25861C49.4497 3.77359 51.0534 3.80487 28.0225 3.8127C11.8055 3.82052 6.93176 3.83617 6.62667 3.9144Z"
          fill="#C11515"/>
    <path d="M27.3185 13.036C15.4197 17.4168 5.57056 21.0702 5.43757 21.1641C4.85084 21.5474 4.67092 22.4548 5.04642 23.1667C5.15594 23.378 8.8171 29.6285 13.1823 37.0447C19.3234 47.4962 21.1774 50.5941 21.3965 50.7741C21.6312 50.9618 21.7798 51.0166 22.1475 51.04C22.7264 51.0792 23.0784 50.9696 23.3835 50.6411C23.5634 50.4533 48.5501 10.736 50.4119 7.68504C50.7327 7.15308 50.7874 7.00444 50.7874 6.65241C50.7874 6.42554 50.7483 6.14391 50.7014 6.01875C50.5058 5.50243 49.8409 5.05652 49.262 5.06434C49.0507 5.06434 42.1665 7.5677 27.3185 13.036Z"
          fill="white"/>
</svg>
