<svg width="56" height="56" viewBox="0 0 56 56" fill="none" xmlns="http://www.w3.org/2000/svg">
    <g clip-path="url(#clip0_8718_28195)">
        <path d="M52 4H4V52H52V4Z" fill="#1946B9"/>
        <path fill-rule="evenodd" clip-rule="evenodd"
              d="M16.2881 14.9777C18.1745 14.9321 20.0609 14.9705 21.9497 14.9561C21.9473 20.6657 21.9449 26.3753 21.9497 32.0849C26.1065 26.3729 30.2393 20.6441 34.4153 14.9489C36.1793 14.9681 37.9433 14.9537 39.7073 14.9561C39.7097 23.6561 39.7145 32.3561 39.7049 41.0537C37.8233 41.0537 35.9393 41.0489 34.0577 41.0561C34.0553 35.3441 34.0625 29.6345 34.0529 23.9225C29.9537 29.6369 25.8089 35.3201 21.7121 41.0393C19.9097 41.0753 18.1025 41.0441 16.2977 41.0537C16.2857 32.3633 16.3049 23.6705 16.2881 14.9777Z"
              fill="#FFFFFE"/>
    </g>
    <defs>
        <clipPath id="clip0_8718_28195">
            <rect width="48" height="48" fill="white" transform="translate(4 4)"/>
        </clipPath>
    </defs>
</svg>
