<svg width="56" height="56" viewBox="0 0 56 56" fill="none" xmlns="http://www.w3.org/2000/svg">
    <g clip-path="url(#clip0_8719_28208)">
        <path fill-rule="evenodd" clip-rule="evenodd"
              d="M11.0347 2L29.2318 41.112C33.3839 31.4514 37.5446 21.4352 41.662 11.7571C41.9088 13.8956 42.1209 16.0341 42.3547 18.1726C41.8135 18.6952 41.4022 19.3407 41.1121 20.0345C37.7091 27.8024 34.3017 35.5703 30.8814 43.3295C29.5652 43.3251 28.249 43.3207 26.9328 43.3251L11.0217 9.03462L11.0347 2Z"
              fill="#ED1C24"/>
        <path fill-rule="evenodd" clip-rule="evenodd"
              d="M11.026 10.3871C17.0874 23.1917 23.0015 36.0709 28.972 48.9194C33.1587 39.4521 37.2371 29.9277 41.506 20.4999C41.7528 22.3925 41.9044 24.2982 42.1252 26.1996C43.0647 35.421 44.0432 44.6424 45 53.8639C34.5311 53.8595 24.0623 53.8726 13.5934 53.8551C12.7362 53.8507 11.8789 53.9166 11.026 54C10.9913 39.4609 10.9913 24.9218 11.026 10.3871Z"
              fill="#004B88"/>
        <path fill-rule="evenodd" clip-rule="evenodd"
              d="M41.9478 19.951L42.6232 19.1167L44.9611 43.5359L44.303 42.5128L41.9478 19.951Z" fill="#ED1C24"/>
    </g>
    <defs>
        <clipPath id="clip0_8719_28208">
            <rect width="34" height="52" fill="white" transform="translate(11 2)"/>
        </clipPath>
    </defs>
</svg>
