<svg width="56" height="56" viewBox="0 0 56 56" fill="none" xmlns="http://www.w3.org/2000/svg">
    <path d="M8.93335 4.14616C8.93335 4.24362 10.5222 7.21622 12.4534 10.7979C14.3845 14.3553 16.4378 18.1563 17 19.2284C17.5867 20.3005 18.6867 22.3228 19.4445 23.736C20.2267 25.1492 21.4245 27.3909 22.1334 28.731C22.8422 30.0711 23.6245 31.4843 23.8445 31.8985C24.2356 32.5807 24.8467 33.6772 27.2178 38.1117C29.0022 41.4985 29.5645 42.3513 29.6622 41.9858C29.7356 41.8153 30.3711 40.597 31.0556 39.33C33.3778 35.1147 34.8689 32.3371 37.6556 27.1472C38.6822 25.198 40.1734 22.469 40.9556 21.0558C41.7134 19.6426 43.2045 16.9137 44.2556 14.9645C45.3067 13.0152 46.4556 10.871 46.8223 10.2132C48.9245 6.36342 50 4.29235 50 4.17052C50 4.07306 40.76 3.99997 29.4667 3.99997C18.1734 3.99997 8.93335 4.07306 8.93335 4.14616Z"
          fill="#C7EB00"/>
    <path d="M6 42.8629V52H15.1667H24.3333V42.8629V33.7259H15.1667H6V42.8629Z" fill="#50007A"/>
</svg>
