<svg width="56" height="56" viewBox="0 0 56 56" fill="none" xmlns="http://www.w3.org/2000/svg">
<g clip-path="url(#clip0_8720_28276)">
<path d="M19.5549 27.4382H23.7549V31.3701L26.0582 27.4382H30.7098L27.142 32.5872L30.8001 38.2978H25.9678L23.7549 34.1787V38.2978H19.5549V27.4382Z" fill="#006FBA"/>
<path d="M18.5162 37.9702C17.8388 38.3446 16.9355 38.6255 15.7162 38.6255C12.2839 38.6255 9.84521 36.3319 9.84521 32.868C9.84521 28.9361 12.9613 27.1106 15.6259 27.1106C16.4839 27.1106 17.6581 27.3446 18.5162 27.9531V31.7446C17.8839 30.9021 16.9355 30.5744 16.213 30.5744C14.6323 30.5744 13.9097 31.651 13.9097 32.9617C13.9097 34.3659 14.9033 35.1617 16.213 35.1617C17.1613 35.1617 17.9742 34.7404 18.5613 34.1787C18.5162 34.1787 18.5162 37.9702 18.5162 37.9702Z" fill="#006FBA"/>
<path d="M4.2 31.5106V29.9659H4.60645C5.32903 29.9659 5.55484 30.3404 5.55484 30.7149C5.55484 31.0894 5.37419 31.4638 4.60645 31.4638L4.2 31.5106ZM0 27.3915V38.2979H6.23226C9.12258 38.2979 9.75484 36.3787 9.75484 35.2553C9.75484 33.7574 8.76129 32.7276 7.40645 32.4936V32.4468C8.26452 32.1659 9.25807 31.417 9.25807 30.1532C9.25807 29.3106 8.94194 27.3915 5.91613 27.3915H0ZM4.2 35.6298V33.9915H4.69677C5.10323 33.9915 5.73548 34.0851 5.73548 34.7872C5.73548 35.5362 5.05806 35.6298 4.69677 35.6298H4.2Z" fill="#006FBA"/>
<path d="M55.3678 28.8426L54.1484 28.8894L54.0581 28.5617L52.8839 28.5149V28.2809H51.6646L51.8452 28.7022L52.3871 28.7958L52.342 28.6085L52.8387 28.983L53.6516 29.1702H54.1936L55.5936 28.983L55.3678 28.8426Z" fill="#52B9E9"/>
<path d="M52.2968 27.7659L51.7097 27.6723C51.7097 27.6723 51.7097 27.4851 51.4839 27.3447C51.2581 27.2511 51.3033 27.3447 51.3033 27.3447L51.0775 27.2042L50.671 27.1574L50.6259 26.8766L50.1291 26.8298V26.6894L49.7226 26.6425L49.542 26.5021L49.5872 26.3149L49.4968 26.1745L49.0001 25.9404L48.5936 25.8L48.3226 25.4723L48.0065 25.1915L47.6001 24.7702L46.5614 24.3957L45.613 23.6936L45.2065 23.5064L44.8001 23.3191L43.942 22.8511L42.6323 22.1021L39.7872 20.6979L38.9743 20.3234C38.5226 20.1362 38.4323 19.9957 38.4323 19.9489C38.0259 19.8553 37.8904 19.7617 37.6646 19.5745C37.4388 19.5745 36.942 19.2936 36.8065 19.1532C36.8065 19.1532 35.9485 18.9191 35.9033 18.8255C35.9033 18.7787 33.7355 17.983 33.4646 17.9362C33.2839 17.9362 32.742 17.8425 32.6517 17.7957C32.5614 17.7957 32.2452 17.7021 32.1097 17.6553C31.6581 17.6085 31.2065 17.5149 30.7549 17.5149C30.4388 17.5149 30.213 17.5149 29.942 17.4213C29.8517 17.4681 29.1743 17.3745 28.9033 17.5617C28.6323 17.5617 28.0001 17.7021 27.8194 17.7957C27.4581 17.7957 26.8259 18.217 26.6001 18.3106C26.5097 18.3574 26.3743 18.4042 26.2839 18.4511C26.9614 18.6851 27.7291 18.9659 27.7291 19.0128C27.7743 19.0596 28.6323 19.2936 28.6323 19.3404C28.8581 19.5276 29.3549 19.8085 29.5807 19.8085C29.8065 20.0425 29.942 20.0893 30.3485 20.183C30.3485 20.2298 30.4388 20.3702 30.8904 20.5574L31.7033 20.9319L34.5485 22.3362L35.8581 23.0851L36.7162 23.5532L37.1226 23.7404L37.5291 23.9276L37.8452 24.1617L38.4775 24.3957L39.8775 24.8638L41.5936 25.5191L42.2259 25.7532L42.8581 25.9404L43.1743 25.8936L43.4904 25.9872L43.8517 26.3149L44.213 26.1745L44.4839 26.2213L44.6646 26.5021L44.8001 26.6425L45.1162 26.7362L45.4323 26.783L45.7936 26.6894L46.2452 26.7362L46.3807 27.017L47.013 27.1106L47.4646 27.1574L47.9162 27.2042L48.2775 27.3447L48.5936 27.6723L49.0452 27.7659L50.2194 27.9532L51.2581 27.8128L51.9355 27.8596L52.2968 27.7659Z" fill="#52B9E9"/>
<path d="M42.8582 29.4978H44.1227V29.7318L45.2517 29.8255L45.3872 30.1063L46.5614 30.0595L46.8323 30.2467L45.4323 30.434L44.8904 30.3872L44.0775 30.1999L43.5807 29.8723L43.6259 30.0127L43.084 29.9659L42.8582 29.4978Z" fill="#006FBA"/>
<path d="M42.9936 28.9829C42.9936 28.9829 42.9936 28.7957 42.7678 28.6553C42.542 28.5617 42.5871 28.6553 42.5871 28.6553L42.3613 28.5148L42 28.4212V28.1404L41.5032 28.0936V27.9531L41.0968 27.9063L40.9161 27.7659L40.9613 27.5787L40.871 27.4382L40.3742 27.2042L39.9678 27.0638L39.6968 26.7361L39.3807 26.4553L38.9742 26.034L37.9355 25.6595L36.9871 24.9574L36.5807 24.7702L36.1742 24.5829L35.3161 24.1148L34.0065 23.3659L31.1613 21.9617L30.3484 21.5872C29.8968 21.4 29.8065 21.2595 29.8065 21.2127C29.4 21.1191 29.2645 21.0255 29.0387 20.8383C28.8129 20.8383 28.3161 20.5574 28.1807 20.417C28.1807 20.417 27.3226 20.1829 27.2774 20.0893C27.2774 20.0425 25.1097 19.2468 24.8387 19.2C24.6581 19.2 24.1161 19.1063 24.0258 19.0595C23.9355 19.0595 23.6194 18.9659 23.4839 18.9191C23.0323 18.8723 22.5807 18.7787 22.129 18.7787C21.8129 18.7787 21.5871 18.7787 21.3161 18.6851C21.2258 18.7319 20.5484 18.6383 20.2774 18.8255C20.0065 18.8255 19.3742 18.9659 19.1936 19.0595C18.8323 19.0595 18.2 19.4808 17.9742 19.5744C17.7936 19.668 17.5678 19.7617 17.3871 19.8553C17.2968 19.9021 16.1226 20.5106 16.0323 20.6042C16.0323 20.651 14.8581 21.3531 14.7678 21.4468C14.7226 21.4936 14.4065 21.634 14.3161 21.7276C14.2258 21.8212 13.9097 22.1021 13.8194 22.1489C13.7742 22.2425 13.4581 22.3829 13.4129 22.4765C13.3226 22.5702 12.9613 22.7574 12.9161 22.8042C12.9161 22.8042 12.6903 22.9914 12.5549 23.1319C12.5097 23.2255 12.4194 23.3191 12.3742 23.4127C12.2839 23.4595 11.9678 23.6468 11.8774 23.6936C11.8774 23.8808 11.8774 24.2085 11.6065 24.1148C11.6065 24.1148 11.2452 24.3489 11.2452 24.3021C11.2903 24.3021 11.0645 24.6297 10.8839 24.8638C10.7936 25.0042 10.2516 25.1914 10.1613 25.3319C9.9355 25.6127 9.70969 25.8936 9.48389 26.1744C9.48389 26.1744 9.48389 26.1744 9.52905 26.1744C9.52905 26.2212 9.70969 26.2212 9.75485 26.268C9.80002 26.3617 9.66453 26.4553 9.66453 26.5957C9.66453 26.5957 9.66453 26.5957 9.70969 26.5957C9.84518 26.5957 10.0258 26.4085 10.1613 26.3617C10.2516 26.3148 10.3871 26.268 10.4774 26.2212C10.6581 26.1276 10.8387 25.9872 11.0645 25.8936C12.4645 25.0978 13.9097 24.3489 15.3097 23.5531C15.9871 23.1787 16.529 22.851 17.2968 22.4297C17.4774 22.3361 18.1549 21.868 18.6516 21.8212C19.2839 21.7744 20.0968 21.9617 20.2774 22.0553C20.4581 22.1489 20.9549 22.3829 21.2258 22.4297C21.3161 22.4765 21.4516 22.5702 21.4968 22.5702C21.542 22.617 21.9936 22.6638 22.2194 22.7574C22.3097 22.8042 22.4 22.851 22.4903 22.8978C22.8968 23.0382 23.8903 23.2723 24.2516 23.3659C24.5678 23.4595 24.7484 23.6468 24.8839 23.6936C25.1097 23.834 25.1549 23.7872 25.3807 23.8808C25.7871 23.9276 26.0129 24.068 26.0129 24.068C26.1484 24.1148 26.1936 24.1617 26.329 24.2085C26.4194 24.2085 26.6452 24.3957 26.6903 24.3957C26.7807 24.3957 27.4129 24.6297 27.5032 24.6297C27.5936 24.6297 28.0452 24.817 28.1355 24.8638C28.271 24.9106 28.4065 24.9574 28.542 25.0042L29.8516 25.5191L31.2516 25.9872L32.9678 26.6425L33.6 26.8765L34.2323 27.0638L34.5484 27.017L34.8645 27.1106L35.2258 27.4382L35.5871 27.2978L35.8581 27.3446L36.0387 27.6255L36.1742 27.7659L36.4903 27.8595L36.8065 27.9063L37.1678 27.8127L37.6194 27.8595L37.7549 28.1404L38.3871 28.234L38.8387 28.2808L39.2903 28.3276L39.6516 28.468L39.9678 28.7957L40.4194 28.8893L41.5936 29.0765L42.6323 28.9361L43.3097 28.9829L43.5355 28.7957L42.9936 28.9829Z" fill="#006FBA"/>
</g>
<defs>
<clipPath id="clip0_8720_28276">
<rect width="56" height="22" fill="white" transform="translate(0 17)"/>
</clipPath>
</defs>
</svg>
