<svg width="40" height="40" viewBox="0 0 40 40" fill="none" xmlns="http://www.w3.org/2000/svg">
<path opacity="0.5" d="M7.11596 16.6667L7.73127 13.1658C8.31419 9.78087 9.52861 6.66675 14.3539 6.66675H25.7209C30.5461 6.66675 31.7606 9.78087 32.3435 13.1658L32.9588 16.6667C44.6803 16.6667 1.85951 16.6667 7.11596 16.6667Z" fill="#36B2AB"/>
<path d="M35.7808 20.456C35.5483 17.816 34.8662 15 29.8902 15H10.1101C5.13409 15 4.46752 17.816 4.21949 20.456L3.3514 30.2C3.24289 31.416 3.63043 32.632 4.43652 33.544C5.2581 34.472 6.42073 35 7.66086 35H9.025C11.5363 35 12.0168 33.512 12.3269 32.536L12.6369 31.576C12.9934 30.472 13.0864 30.2 14.4816 30.2H25.5187C26.9139 30.2 26.9604 30.36 27.3634 31.576L27.6735 32.536C27.9835 33.512 28.4641 35 30.9753 35H32.3395C33.5641 35 34.7422 34.472 35.5638 33.544C36.3699 32.632 36.7574 31.416 36.6489 30.2L35.7808 20.456ZM12.2493 23.8H7.59885C6.96328 23.8 6.43623 23.256 6.43623 22.6C6.43623 21.944 6.96328 21.4 7.59885 21.4H12.2493C12.8849 21.4 13.412 21.944 13.412 22.6C13.412 23.256 12.8849 23.8 12.2493 23.8ZM32.4015 23.8H27.751C27.1154 23.8 26.5884 23.256 26.5884 22.6C26.5884 21.944 27.1154 21.4 27.751 21.4H32.4015C33.037 21.4 33.5641 21.944 33.5641 22.6C33.5641 23.256 33.037 23.8 32.4015 23.8Z" fill="#36B2AB"/>
<rect x="5" y="13.9128" width="2.87121" height="1.74996" rx="0.874979" fill="#36B2AB"/>
<rect x="32.1289" y="13.9128" width="2.8712" height="1.74996" rx="0.874979" fill="#36B2AB"/>
</svg>
