<svg width="24" height="24" viewBox="0 0 24 24" fill="none" xmlns="http://www.w3.org/2000/svg">
    <path opacity="0.4"
          d="M20.5 10.19H17.61C15.24 10.19 13.31 8.26 13.31 5.89V3C13.31 2.45 12.86 2 12.31 2H8.07C4.99 2 2.5 4 2.5 7.57V16.43C2.5 20 4.99 22 8.07 22H15.93C19.01 22 21.5 20 21.5 16.43V11.19C21.5 10.64 21.05 10.19 20.5 10.19Z"
          fill="#FFA429"/>
    <path fill-rule="evenodd" clip-rule="evenodd"
          d="M17.5398 11.9765C17.8246 12.2773 17.8116 12.752 17.5109 13.0368L14.7677 15.6341C14.0649 16.2868 12.96 16.255 12.2941 15.5538L12.2895 15.549L10.7038 13.8497C10.6054 13.7477 10.4466 13.7448 10.345 13.841C10.3449 13.8411 10.3451 13.8409 10.345 13.841L7.52169 16.5308C7.2218 16.8166 6.74706 16.8051 6.46134 16.5052C6.17562 16.2053 6.18711 15.7305 6.48701 15.4448L9.31173 12.7536C10.016 12.0847 11.1255 12.1155 11.793 12.8183L11.7975 12.8231L13.3832 14.5224C13.4827 14.6254 13.6449 14.6279 13.7451 14.5367L16.4795 11.9476C16.7803 11.6628 17.255 11.6758 17.5398 11.9765Z"
          fill="#FFA429"/>
    <path d="M15.7999 2.20999C15.3899 1.79999 14.6799 2.07999 14.6799 2.64999V6.13999C14.6799 7.59999 15.9199 8.80999 17.4299 8.80999C18.3799 8.81999 19.6999 8.81999 20.8299 8.81999C21.3999 8.81999 21.6999 8.14999 21.2999 7.74999C19.8599 6.29999 17.2799 3.68999 15.7999 2.20999Z"
          fill="#FFA429"/>
</svg>
