<?xml version="1.0" encoding="utf-8" ?>
<svg xmlns="http://www.w3.org/2000/svg" width="19" height="5">
	<defs>
		<clipPath id="clip_0">
			<path d="M5 2.5C5 3.88071 3.88071 5 2.5 5C1.11929 5 0 3.88071 0 2.5C0 1.11929 1.11929 0 2.5 0C3.88071 0 5 1.11929 5 2.5ZM12 2.5C12 3.88071 10.8807 5 9.5 5C8.11929 5 7 3.88071 7 2.5C7 1.11929 8.11929 0 9.5 0C10.8807 0 12 1.11929 12 2.5ZM16.5 5C17.8807 5 19 3.88071 19 2.5C19 1.11929 17.8807 0 16.5 0C15.1193 0 14 1.11929 14 2.5C14 3.88071 15.1193 5 16.5 5Z" clip-rule="evenodd"/>
		</clipPath>
	</defs>
	<g clip-path="url(#clip_0)">
		<path fill="none" stroke="rgb(161,166,182)" stroke-width="2" stroke-miterlimit="4" d="M2.5 5C3.88071 5 5 3.88071 5 2.5C5 1.11929 3.88071 0 2.5 0C1.11929 0 0 1.11929 0 2.5C0 3.88071 1.11929 5 2.5 5ZM9.5 5C10.8807 5 12 3.88071 12 2.5C12 1.11929 10.8807 0 9.5 0C8.11929 0 7 1.11929 7 2.5C7 3.88071 8.11929 5 9.5 5ZM19 2.5C19 3.88071 17.8807 5 16.5 5C15.1193 5 14 3.88071 14 2.5C14 1.11929 15.1193 0 16.5 0C17.8807 0 19 1.11929 19 2.5Z" fill-rule="evenodd"/>
	</g>
</svg>