<svg width="24" height="24" viewBox="0 0 24 24" fill="none" xmlns="http://www.w3.org/2000/svg">
    <path d="M13.8809 6.67419L5.07744 15.4875C5.03315 15.532 5.00117 15.5881 4.98594 15.6485L4.01016 19.5691C3.98098 19.6872 4.01562 19.8127 4.10166 19.8988C4.16677 19.964 4.25547 20 4.34621 20C4.374 20 4.40243 19.9966 4.4301 19.9896L8.34667 19.0127C8.40771 18.9975 8.46317 18.9656 8.50746 18.9212L17.3117 10.1086L13.8809 6.67419Z"
          fill="#4378FF"/>
    <path d="M19.4924 5.47249L18.5124 4.4915C17.8574 3.83585 16.7159 3.83649 16.0617 4.4915L14.8613 5.69316L18.292 9.12739L19.4924 7.92573C19.8195 7.59835 19.9997 7.16261 19.9997 6.69918C19.9997 6.23574 19.8195 5.8 19.4924 5.47249Z"
          fill="#4378FF"/>
</svg>
