<svg width="19" height="12" viewBox="0 0 19 12" fill="none" xmlns="http://www.w3.org/2000/svg">
<path fill-rule="evenodd" clip-rule="evenodd" d="M5.5 6C6.81133 6 7.92615 5.15864 8.3341 3.9863C8.38806 3.99531 8.44348 4 8.5 4H17.5C18.0523 4 18.5 3.55228 18.5 3C18.5 2.44772 18.0523 2 17.5 2H8.5C8.44348 2 8.38806 2.00469 8.3341 2.0137C7.92615 0.841356 6.81133 0 5.5 0C4.18867 0 3.07385 0.841356 2.6659 2.0137C2.61194 2.00469 2.55652 2 2.5 2H1.5C0.947715 2 0.5 2.44772 0.5 3C0.5 3.55228 0.947715 4 1.5 4H2.5C2.55652 4 2.61194 3.99531 2.6659 3.9863C3.07385 5.15864 4.18867 6 5.5 6ZM5.5 4C6.05228 4 6.5 3.55228 6.5 3C6.5 2.44772 6.05228 2 5.5 2C4.94772 2 4.5 2.44772 4.5 3C4.5 3.55228 4.94772 4 5.5 4ZM13.5 12C12.1887 12 11.0738 11.1586 10.6659 9.9863C10.6119 9.99531 10.5565 10 10.5 10H1.5C0.947716 10 0.5 9.55228 0.5 9C0.5 8.44772 0.947716 8 1.5 8H10.5C10.5565 8 10.6119 8.00469 10.6659 8.0137C11.0738 6.84136 12.1887 6 13.5 6C14.8113 6 15.9262 6.84136 16.3341 8.0137C16.3881 8.00469 16.4435 8 16.5 8H17.5C18.0523 8 18.5 8.44772 18.5 9C18.5 9.55228 18.0523 10 17.5 10H16.5C16.4435 10 16.3881 9.99531 16.3341 9.9863C15.9262 11.1586 14.8113 12 13.5 12ZM13.5 10C12.9477 10 12.5 9.55228 12.5 9C12.5 8.44772 12.9477 8 13.5 8C14.0523 8 14.5 8.44772 14.5 9C14.5 9.55228 14.0523 10 13.5 10Z" fill="white"/>
</svg>
