<svg width="22" height="22" viewBox="0 0 22 22" fill="none" xmlns="http://www.w3.org/2000/svg">
    <path fill-rule="evenodd" clip-rule="evenodd"
          d="M21.3125 9.26061C21.3125 8.95304 21.0981 8.68701 20.7975 8.62154L19.2409 8.28315C19.1067 7.87584 18.9417 7.47818 18.748 7.09443L19.6097 5.754C19.776 5.4952 19.7395 5.15537 19.522 4.93792L17.0621 2.47798C16.8446 2.26053 16.5048 2.22401 16.246 2.39031L14.9056 3.25205C14.5218 3.05826 14.1242 2.89334 13.7168 2.7591L13.3785 1.2025C13.3132 0.901951 13.047 0.6875 12.7394 0.6875H9.26061C8.95298 0.6875 8.68683 0.901951 8.62154 1.20251L8.28315 2.7591C7.87584 2.89334 7.47818 3.05826 7.09443 3.25205L5.754 2.39031C5.4952 2.22401 5.15537 2.26053 4.93792 2.47798L2.47798 4.93792C2.26053 5.15537 2.22401 5.4952 2.39031 5.754L3.25205 7.09443C3.05826 7.47818 2.89334 7.87584 2.7591 8.28315L1.2025 8.62154C0.901892 8.68701 0.6875 8.95304 0.6875 9.26061V12.7394C0.6875 13.047 0.901892 13.313 1.20249 13.3785L2.7591 13.7168C2.89334 14.1242 3.05826 14.5218 3.25205 14.9056L2.39031 16.246C2.22401 16.5048 2.26053 16.8446 2.47798 17.0621L4.93792 19.522C5.15537 19.7395 5.4952 19.776 5.754 19.6097L7.09443 18.748C7.47818 18.9417 7.87584 19.1067 8.28315 19.2409L8.62154 20.7975C8.68683 21.098 8.95298 21.3125 9.26061 21.3125H12.7394C13.047 21.3125 13.3132 21.098 13.3785 20.7975L13.7168 19.2409C14.1242 19.1067 14.5218 18.9417 14.9056 18.748L16.246 19.6097C16.5049 19.776 16.8447 19.7396 17.0621 19.522L19.522 17.0621C19.7395 16.8446 19.776 16.5048 19.6097 16.246L18.748 14.9056C18.9417 14.5218 19.1067 14.1242 19.2409 13.7168L20.7975 13.3785C21.0981 13.313 21.3125 13.047 21.3125 12.7394V9.26061ZM20.0847 12.2769L18.6053 12.5985C18.3974 12.6438 18.2316 12.8002 18.1744 13.005C18.0145 13.5788 17.7844 14.1337 17.4906 14.6543C17.386 14.8397 17.3925 15.0676 17.5076 15.2466L18.3268 16.5209L16.521 18.3268L15.2466 17.5076C15.0676 17.3925 14.8397 17.386 14.6545 17.4906C14.1337 17.7844 13.5787 18.0145 13.005 18.1744C12.8002 18.2316 12.6438 18.3974 12.5985 18.6053L12.2769 20.0847H9.72311L9.4015 18.6053C9.35623 18.3974 9.19976 18.2316 8.99497 18.1744C8.4212 18.0145 7.86629 17.7844 7.3457 17.4906C7.16041 17.386 6.93245 17.3926 6.7534 17.5076L5.47914 18.3268L3.67333 16.5209L4.49241 15.2466C4.60756 15.0676 4.61415 14.8396 4.50955 14.6543C4.21584 14.1338 3.98573 13.579 3.82558 13.005C3.76843 12.8002 3.60272 12.6438 3.39488 12.5985L1.91528 12.2769V9.72311L3.39471 9.4015C3.60261 9.35623 3.76845 9.19976 3.82558 8.99497C3.98553 8.4212 4.21561 7.86629 4.5094 7.3457C4.61403 7.16031 4.60752 6.93237 4.49241 6.7534L3.67317 5.47915L5.47899 3.67317L6.75341 4.49241C6.93237 4.60752 7.16031 4.61403 7.34555 4.50939C7.86635 4.21558 8.42126 3.98551 8.99496 3.82558C9.19976 3.76845 9.35623 3.60261 9.4015 3.39472L9.72311 1.91528H12.2769L12.5985 3.39471C12.6438 3.60261 12.8002 3.76845 13.005 3.82558C13.5788 3.98553 14.1337 4.21561 14.6543 4.5094C14.8396 4.61398 15.0675 4.60743 15.2466 4.49241L16.5209 3.67317L18.3267 5.47914L17.5076 6.75341C17.3924 6.93243 17.3858 7.16038 17.4904 7.34569C17.7841 7.86576 18.0142 8.42061 18.1744 8.99496C18.2316 9.19981 18.3973 9.35624 18.6051 9.4015L20.0847 9.72311V12.2769ZM15.9513 11C15.9513 8.26992 13.7301 6.04876 11.0001 6.04876C8.26999 6.04876 6.04883 8.26992 6.04883 11C6.04883 13.7301 8.26999 15.9512 11.0001 15.9512C13.7301 15.9512 15.9513 13.7301 15.9513 11ZM14.6182 11C14.6182 13.0531 13.0532 14.5889 11.0001 14.5889C8.94696 14.5889 7.39648 13.0531 7.39648 11C7.39648 8.9469 8.94696 7.42577 11.0001 7.42577C13.0532 7.42577 14.6182 8.9469 14.6182 11Z"
          fill="#4378FF" stroke="#4378FF" stroke-width="0.5"/>
</svg>
