<svg width="40" height="40" viewBox="0 0 40 40" fill="none" xmlns="http://www.w3.org/2000/svg">
<path d="M18.8667 5H8.48333C5.16667 5 3.5 6.61888 3.5 9.84061V35.4542H12.5V29.4435C12.5 28.7863 13.0667 28.2413 13.75 28.2413C14.4333 28.2413 15 28.7703 15 29.4435V35.4542H23.8333V9.84061C23.8333 6.61888 22.1833 5 18.8667 5ZM17.9167 20.6278H9.66667C8.98333 20.6278 8.41667 20.0828 8.41667 19.4257C8.41667 18.7685 8.98333 18.2235 9.66667 18.2235H17.9167C18.6 18.2235 19.1667 18.7685 19.1667 19.4257C19.1667 20.0828 18.6 20.6278 17.9167 20.6278ZM17.9167 14.6171H9.66667C8.98333 14.6171 8.41667 14.0721 8.41667 13.415C8.41667 12.7578 8.98333 12.2128 9.66667 12.2128H17.9167C18.6 12.2128 19.1667 12.7578 19.1667 13.415C19.1667 14.0721 18.6 14.6171 17.9167 14.6171Z" fill="#4378FF"/>
<path opacity="0.5" d="M38.3334 35.4167H34.5501V30.4167C36.1334 29.9 37.2834 28.4167 37.2834 26.6667V23.3334C37.2834 21.15 35.5001 19.3667 33.3167 19.3667C31.1334 19.3667 29.3501 21.15 29.3501 23.3334V26.6667C29.3501 28.4 30.4834 29.8667 32.0334 30.4V35.4167H1.66675C0.983415 35.4167 0.416748 35.9834 0.416748 36.6667C0.416748 37.35 0.983415 37.9167 1.66675 37.9167H33.2167C33.2501 37.9167 33.2667 37.9334 33.3001 37.9334C33.3334 37.9334 33.3501 37.9167 33.3834 37.9167H38.3334C39.0167 37.9167 39.5834 37.35 39.5834 36.6667C39.5834 35.9834 39.0167 35.4167 38.3334 35.4167Z" fill="#4378FF"/>
</svg>
