<svg width="24" height="24" viewBox="0 0 24 24" fill="none" xmlns="http://www.w3.org/2000/svg">
    <rect width="24" height="24" rx="12" fill="white"/>
    <path fill-rule="evenodd" clip-rule="evenodd"
          d="M12 13.7827L8.58508 17.33C8.21986 17.7093 7.6144 17.7151 7.24204 17.3427C6.87955 16.9802 6.87399 16.3943 7.22952 16.025L10.7742 12.3429C10.7708 12.3301 10.7676 12.3173 10.7646 12.3044L7.22169 8.59315C6.8688 8.2235 6.87557 7.63972 7.23694 7.27835C7.61036 6.90493 8.21792 6.91198 8.58258 7.29396L12 10.8737L15.4174 7.29396C15.7821 6.91198 16.3897 6.90493 16.7631 7.27835C17.1244 7.63972 17.1312 8.2235 16.7783 8.59315L13.2354 12.3043C13.2325 12.3172 13.2293 12.3301 13.2258 12.3429L16.7705 16.025C17.126 16.3943 17.1205 16.9802 16.758 17.3427C16.3856 17.7151 15.7802 17.7093 15.415 17.33L12 13.7827Z"
          fill="#D0D1D7"/>
</svg>
