<svg width="32" height="32" viewBox="0 0 32 32" fill="none" xmlns="http://www.w3.org/2000/svg">
<rect width="32" height="32" rx="16" fill="#EFF2F5"/>
<path fill-rule="evenodd" clip-rule="evenodd" d="M14.3656 16.4573C14.361 16.4402 14.3567 16.423 14.3528 16.4058L9.62894 11.4576C9.15842 10.9647 9.16744 10.1863 9.64927 9.70449C10.1472 9.2066 10.9573 9.21599 11.4435 9.7253L16 14.4982L20.5566 9.7253C21.0428 9.21599 21.8529 9.2066 22.3507 9.70449C22.8326 10.1863 22.8416 10.9647 22.3711 11.4576L17.6472 16.4058C17.6433 16.423 17.639 16.4402 17.6344 16.4573L22.3607 21.3666C22.8347 21.8591 22.8273 22.6403 22.344 23.1237C21.8475 23.6201 21.0402 23.6125 20.5533 23.1066L16 18.377L11.4468 23.1066C10.9598 23.6125 10.1525 23.6201 9.65606 23.1237C9.17275 22.6403 9.16532 21.8591 9.63936 21.3666L14.3656 16.4573Z" fill="#EF5E70"/>
</svg>
