<svg width="24" height="24" viewBox="0 0 24 24" fill="none" xmlns="http://www.w3.org/2000/svg">
<path fill-rule="evenodd" clip-rule="evenodd" d="M12 3.5C7.30558 3.5 3.5 7.30558 3.5 12C3.5 16.1105 6.41922 19.5425 10.2984 20.3299C11.1103 20.4947 11.6348 21.2865 11.47 22.0984C11.3052 22.9102 10.5135 23.4348 9.7016 23.27C4.45182 22.2043 0.5 17.5653 0.5 12C0.5 5.64873 5.64873 0.5 12 0.5C18.3513 0.5 23.5 5.64873 23.5 12C23.5 17.3606 19.8336 21.8611 14.8739 23.1376C14.0716 23.3441 13.2538 22.8611 13.0473 22.0588C12.8409 21.2566 13.3238 20.4388 14.1261 20.2323C17.7925 19.2886 20.5 15.9586 20.5 12C20.5 7.30558 16.6944 3.5 12 3.5Z" fill="url(#paint0_linear_2169_8027)"/>
<defs>
<linearGradient id="paint0_linear_2169_8027" x1="5.69062" y1="19.9946" x2="13.4241" y2="23.3003" gradientUnits="userSpaceOnUse">
<stop stop-color="#4378FF"/>
<stop offset="1" stop-color="#4378FF" stop-opacity="0.1"/>
</linearGradient>
</defs>
</svg>
