<svg width="24" height="24" viewBox="0 0 24 24" fill="none" xmlns="http://www.w3.org/2000/svg">
    <rect width="24" height="24" rx="12" fill="#EFF2F5"/>
    <path fill-rule="evenodd" clip-rule="evenodd"
          d="M6.9375 18H17.0625C17.993 18 18.75 17.215 18.75 16.25V9.75C18.75 8.785 17.993 8 17.0625 8H15.375C15.2998 8 15.2275 7.962 15.1821 7.9L14.3143 6.699C13.997 6.261 13.4917 6 12.9643 6H11.0357C10.5083 6 10.0039 6.261 9.68571 6.7L8.81882 7.899C8.77254 7.962 8.70118 8 8.625 8H6.9375C6.00696 8 5.25 8.785 5.25 9.75V16.25C5.25 17.215 6.00696 18 6.9375 18ZM6.69643 9.75C6.69643 9.612 6.80443 9.5 6.9375 9.5H8.625C9.15246 9.5 9.65679 9.239 9.975 8.8L10.8438 7.601C10.8891 7.538 10.9615 7.5 11.0367 7.5H12.9653C13.0405 7.5 13.1128 7.538 13.1581 7.6L14.026 8.801C14.3432 9.239 14.8475 9.5 15.375 9.5H17.0625C17.1956 9.5 17.3036 9.612 17.3036 9.75V16.25C17.3036 16.388 17.1956 16.5 17.0625 16.5H6.9375C6.80443 16.5 6.69643 16.388 6.69643 16.25V9.75ZM9.10712 12.5C9.10712 14.154 10.405 15.5 12 15.5C13.5949 15.5 14.8928 14.154 14.8928 12.5C14.8928 10.846 13.5949 9.49999 12 9.49999C10.405 9.49999 9.10712 10.846 9.10712 12.5ZM10.5535 12.5C10.5535 11.673 11.2025 11 12 11C12.7974 11 13.4464 11.673 13.4464 12.5C13.4464 13.327 12.7974 14 12 14C11.2025 14 10.5535 13.327 10.5535 12.5Z"
          fill="#4378FF"/>
</svg>
