<svg width="24" height="24" viewBox="0 0 24 24" fill="none" xmlns="http://www.w3.org/2000/svg">
    <path d="M22.8602 12.0322C23.0466 12.3043 23.0466 12.6742 22.8602 12.9466C22.6637 13.2335 17.9808 19.9785 11.9999 19.9785C6.01902 19.9785 1.33593 13.2335 1.13961 12.9464C0.953465 12.6739 0.953465 12.3043 1.13961 12.0319C1.33593 11.745 6.01902 5 11.9999 5C17.9808 5 22.6637 11.745 22.8602 12.0322ZM12.0431 18.3363C16.3448 18.3363 20.0548 14.0058 21.154 12.5881C20.053 11.1709 16.3354 6.83891 12.0431 6.83891C7.74132 6.83891 4.0313 11.1694 2.93218 12.5871C4.03273 14.0036 7.75053 18.3363 12.0431 18.3363ZM11.9526 8.15891C14.326 8.15891 16.257 10.0899 16.257 12.4633C16.257 14.8367 14.326 16.7676 11.9526 16.7676C9.57921 16.7676 7.64823 14.8367 7.64823 12.4633C7.64823 10.0899 9.57921 8.15891 11.9526 8.15891ZM11.9526 14.8551C13.2712 14.8551 14.3439 13.7823 14.3439 12.4636C14.3439 11.1448 13.2712 10.072 11.9526 10.072C10.634 10.072 9.56128 11.1448 9.56128 12.4636C9.56128 13.7823 10.634 14.8551 11.9526 14.8551Z"
          fill="#4378FF"/>
</svg>
