<svg width="32" height="32" viewBox="0 0 32 32" fill="none" xmlns="http://www.w3.org/2000/svg">
    <rect width="32" height="32" rx="16" fill="#EFF2F5"/>
    <path fill-rule="evenodd" clip-rule="evenodd"
          d="M26.3125 14.2606C26.3125 13.953 26.0981 13.687 25.7975 13.6215L24.2409 13.2832C24.1067 12.8758 23.9417 12.4782 23.748 12.0944L24.6097 10.754C24.776 10.4952 24.7395 10.1554 24.522 9.93792L22.0621 7.47798C21.8446 7.26053 21.5048 7.22401 21.246 7.39031L19.9056 8.25205C19.5218 8.05826 19.1242 7.89334 18.7168 7.7591L18.3785 6.2025C18.3132 5.90195 18.047 5.6875 17.7394 5.6875H14.2606C13.953 5.6875 13.6868 5.90195 13.6215 6.20251L13.2832 7.7591C12.8758 7.89334 12.4782 8.05826 12.0944 8.25205L10.754 7.39031C10.4952 7.22401 10.1554 7.26053 9.93792 7.47798L7.47798 9.93792C7.26053 10.1554 7.22401 10.4952 7.39031 10.754L8.25205 12.0944C8.05826 12.4782 7.89334 12.8758 7.7591 13.2832L6.2025 13.6215C5.90189 13.687 5.6875 13.953 5.6875 14.2606V17.7394C5.6875 18.047 5.90189 18.313 6.20249 18.3785L7.7591 18.7168C7.89334 19.1242 8.05826 19.5218 8.25205 19.9056L7.39031 21.246C7.22401 21.5048 7.26053 21.8446 7.47798 22.0621L9.93792 24.522C10.1554 24.7395 10.4952 24.776 10.754 24.6097L12.0944 23.748C12.4782 23.9417 12.8758 24.1067 13.2832 24.2409L13.6215 25.7975C13.6868 26.098 13.953 26.3125 14.2606 26.3125H17.7394C18.047 26.3125 18.3132 26.098 18.3785 25.7975L18.7168 24.2409C19.1242 24.1067 19.5218 23.9417 19.9056 23.748L21.246 24.6097C21.5049 24.776 21.8447 24.7396 22.0621 24.522L24.522 22.0621C24.7395 21.8446 24.776 21.5048 24.6097 21.246L23.748 19.9056C23.9417 19.5218 24.1067 19.1242 24.2409 18.7168L25.7975 18.3785C26.0981 18.313 26.3125 18.047 26.3125 17.7394V14.2606ZM25.0847 17.2769L23.6053 17.5985C23.3974 17.6438 23.2316 17.8002 23.1744 18.005C23.0145 18.5788 22.7844 19.1337 22.4906 19.6543C22.386 19.8397 22.3925 20.0676 22.5076 20.2466L23.3268 21.5209L21.521 23.3268L20.2466 22.5076C20.0676 22.3925 19.8397 22.386 19.6545 22.4906C19.1337 22.7844 18.5787 23.0145 18.005 23.1744C17.8002 23.2316 17.6438 23.3974 17.5985 23.6053L17.2769 25.0847H14.7231L14.4015 23.6053C14.3562 23.3974 14.1998 23.2316 13.995 23.1744C13.4212 23.0145 12.8663 22.7844 12.3457 22.4906C12.1604 22.386 11.9325 22.3926 11.7534 22.5076L10.4791 23.3268L8.67333 21.5209L9.49241 20.2466C9.60756 20.0676 9.61415 19.8396 9.50955 19.6543C9.21584 19.1338 8.98573 18.579 8.82558 18.005C8.76843 17.8002 8.60272 17.6438 8.39488 17.5985L6.91528 17.2769V14.7231L8.39471 14.4015C8.60261 14.3562 8.76845 14.1998 8.82558 13.995C8.98553 13.4212 9.21561 12.8663 9.5094 12.3457C9.61403 12.1603 9.60752 11.9324 9.49241 11.7534L8.67317 10.4791L10.479 8.67317L11.7534 9.49241C11.9324 9.60752 12.1603 9.61403 12.3455 9.50939C12.8663 9.21558 13.4213 8.98551 13.995 8.82558C14.1998 8.76845 14.3562 8.60261 14.4015 8.39472L14.7231 6.91528H17.2769L17.5985 8.39471C17.6438 8.60261 17.8002 8.76845 18.005 8.82558C18.5788 8.98553 19.1337 9.21561 19.6543 9.5094C19.8396 9.61398 20.0675 9.60743 20.2466 9.49241L21.5209 8.67317L23.3267 10.4791L22.5076 11.7534C22.3924 11.9324 22.3858 12.1604 22.4904 12.3457C22.7841 12.8658 23.0142 13.4206 23.1744 13.995C23.2316 14.1998 23.3973 14.3562 23.6051 14.4015L25.0847 14.7231V17.2769ZM20.9513 16C20.9513 13.2699 18.7301 11.0488 16.0001 11.0488C13.27 11.0488 11.0488 13.2699 11.0488 16C11.0488 18.7301 13.27 20.9512 16.0001 20.9512C18.7301 20.9512 20.9513 18.7301 20.9513 16ZM19.6182 16C19.6182 18.0531 18.0532 19.5889 16.0001 19.5889C13.947 19.5889 12.3965 18.0531 12.3965 16C12.3965 13.9469 13.947 12.4258 16.0001 12.4258C18.0532 12.4258 19.6182 13.9469 19.6182 16Z"
          fill="#4378FF" stroke="#4378FF" stroke-width="0.5"/>
</svg>
