<svg width="16" height="16" viewBox="0 0 16 16" fill="none" xmlns="http://www.w3.org/2000/svg">
    <path fill-rule="evenodd" clip-rule="evenodd"
          d="M14.5455 8C14.5455 11.615 11.615 14.5455 8 14.5455C4.38505 14.5455 1.45455 11.615 1.45455 8C1.45455 4.38505 4.38505 1.45455 8 1.45455C11.615 1.45455 14.5455 4.38505 14.5455 8ZM16 8C16 12.4183 12.4183 16 8 16C3.58172 16 0 12.4183 0 8C0 3.58172 3.58172 0 8 0C12.4183 0 16 3.58172 16 8ZM8.79993 4.43636C8.79993 4.87819 8.44176 5.23636 7.99993 5.23636C7.5581 5.23636 7.19993 4.87819 7.19993 4.43636C7.19993 3.99454 7.5581 3.63636 7.99993 3.63636C8.44176 3.63636 8.79993 3.99454 8.79993 4.43636ZM7.19993 6.83636C7.19993 6.39454 7.5581 6.03636 7.99993 6.03636C8.44176 6.03636 8.79993 6.39454 8.79993 6.83636V11.6364C8.79993 12.0782 8.44176 12.4364 7.99993 12.4364C7.5581 12.4364 7.19993 12.0782 7.19993 11.6364V6.83636Z"
          fill="#4378FF"/>
</svg>
