<svg width="40" height="40" viewBox="0 0 40 40" fill="none" xmlns="http://www.w3.org/2000/svg">
    <path opacity="0.4"
          d="M26.9833 3.33334H13.0166C6.94998 3.33334 3.33331 6.95 3.33331 13.0167V26.9833C3.33331 33.05 6.94998 36.6667 13.0166 36.6667H26.9833C33.05 36.6667 36.6666 33.05 36.6666 26.9833V13.0167C36.6666 6.95 33.05 3.33334 26.9833 3.33334Z"
          fill="#5F76F2"/>
    <path d="M30.5164 14.7831C30.5164 15.4665 29.9664 16.0331 29.2664 16.0331H20.5164C19.8331 16.0331 19.2664 15.4665 19.2664 14.7831C19.2664 14.0998 19.8331 13.5331 20.5164 13.5331H29.2664C29.9664 13.5331 30.5164 14.0998 30.5164 14.7831Z"
          fill="#5F76F2"/>
    <path d="M16.6165 13.167L12.8665 16.917C12.6165 17.167 12.2998 17.2836 11.9831 17.2836C11.6665 17.2836 11.3331 17.167 11.0998 16.917L9.84979 15.667C9.34979 15.1836 9.34979 14.3836 9.84979 13.9003C10.3331 13.417 11.1165 13.417 11.6165 13.9003L11.9831 14.267L14.8498 11.4003C15.3331 10.917 16.1165 10.917 16.6165 11.4003C17.0998 11.8836 17.0998 12.6836 16.6165 13.167Z"
          fill="#5F76F2"/>
    <path d="M30.5164 26.45C30.5164 27.1333 29.9664 27.7 29.2664 27.7H20.5164C19.8331 27.7 19.2664 27.1333 19.2664 26.45C19.2664 25.7667 19.8331 25.2 20.5164 25.2H29.2664C29.9664 25.2 30.5164 25.7667 30.5164 26.45Z"
          fill="#5F76F2"/>
    <path d="M16.6165 24.833L12.8665 28.583C12.6165 28.833 12.2998 28.9497 11.9831 28.9497C11.6665 28.9497 11.3331 28.833 11.0998 28.583L9.84979 27.333C9.34979 26.8497 9.34979 26.0497 9.84979 25.5664C10.3331 25.083 11.1165 25.083 11.6165 25.5664L11.9831 25.933L14.8498 23.0664C15.3331 22.583 16.1165 22.583 16.6165 23.0664C17.0998 23.5497 17.0998 24.3497 16.6165 24.833Z"
          fill="#5F76F2"/>
</svg>
