<svg xmlns="http://www.w3.org/2000/svg" version="1.1" width="256" height="256" viewBox="0 0 256 256"
     xml:space="preserve">

<defs>
</defs>
    <g style="stroke: none; stroke-width: 0; stroke-dasharray: none; stroke-linecap: butt; stroke-linejoin: miter; stroke-miterlimit: 10; fill: none; fill-rule: nonzero; opacity: 1;"
       transform="translate(1.4065934065934016 1.4065934065934016) scale(2.81 2.81)">
	<polygon points="37.28,20.92 44.98,27.58 37.28,34.24 "
             style="stroke: none; stroke-width: 1; stroke-dasharray: none; stroke-linecap: butt; stroke-linejoin: miter; stroke-miterlimit: 10; fill: #4378FF; fill-rule: nonzero; opacity: 1;"
             transform="  matrix(1 0 0 1 0 0) "/>
        <path d="M 34.282 40.807 V 14.359 l 15.277 13.224 L 34.282 40.807 z M 40.282 27.489 v 0.188 l 0.109 -0.094 L 40.282 27.489 z"
              style="stroke: none; stroke-width: 1; stroke-dasharray: none; stroke-linecap: butt; stroke-linejoin: miter; stroke-miterlimit: 10; fill: #4378FF; fill-rule: nonzero; opacity: 1;"
              transform=" matrix(1 0 0 1 0 0) " stroke-linecap="round"/>
        <path d="M 36.303 65.417 H 20.417 C 9.159 65.417 0 56.258 0 45 s 9.159 -20.417 20.417 -20.417 h 24.558 v 6 H 20.417 C 12.467 30.583 6 37.05 6 45 c 0 7.949 6.467 14.417 14.417 14.417 h 15.886 V 65.417 z"
              style="stroke: none; stroke-width: 1; stroke-dasharray: none; stroke-linecap: butt; stroke-linejoin: miter; stroke-miterlimit: 10; fill: #4378FF; fill-rule: nonzero; opacity: 1;"
              transform=" matrix(1 0 0 1 0 0) " stroke-linecap="round"/>
        <polygon points="52.72,69.08 45.02,62.42 52.72,55.76 "
                 style="stroke: none; stroke-width: 1; stroke-dasharray: none; stroke-linecap: butt; stroke-linejoin: miter; stroke-miterlimit: 10; fill: #4378FF; fill-rule: nonzero; opacity: 1;"
                 transform="  matrix(1 0 0 1 0 0) "/>
        <path d="M 55.719 75.641 L 40.441 62.417 l 15.277 -13.224 V 75.641 z M 49.609 62.417 l 0.109 0.095 v -0.189 L 49.609 62.417 z"
              style="stroke: none; stroke-width: 1; stroke-dasharray: none; stroke-linecap: butt; stroke-linejoin: miter; stroke-miterlimit: 10; fill: #4378FF; fill-rule: nonzero; opacity: 1;"
              transform=" matrix(1 0 0 1 0 0) " stroke-linecap="round"/>
        <path d="M 69.583 65.417 H 45.025 v -6 h 24.558 C 77.532 59.417 84 52.949 84 45 c 0 -7.95 -6.468 -14.417 -14.417 -14.417 H 53.696 v -6 h 15.887 C 80.841 24.583 90 33.742 90 45 S 80.841 65.417 69.583 65.417 z"
              style="stroke: none; stroke-width: 1; stroke-dasharray: none; stroke-linecap: butt; stroke-linejoin: miter; stroke-miterlimit: 10; fill: #4378FF; fill-rule: nonzero; opacity: 1;"
              transform=" matrix(1 0 0 1 0 0) " stroke-linecap="round"/>
</g>
</svg>