<svg width="24" height="24" viewBox="0 0 24 24" fill="none" xmlns="http://www.w3.org/2000/svg">
<path fill-rule="evenodd" clip-rule="evenodd" d="M12 6C11.4615 6 11.025 6.43652 11.025 6.975V11.025H6.975C6.43652 11.025 6 11.4615 6 12C6 12.5385 6.43652 12.975 6.975 12.975H11.025V17.025C11.025 17.5635 11.4615 18 12 18C12.5385 18 12.975 17.5635 12.975 17.025V12.975H17.025C17.5635 12.975 18 12.5385 18 12C18 11.4615 17.5635 11.025 17.025 11.025H12.975V6.975C12.975 6.43652 12.5385 6 12 6Z" fill="#C4C4C4"/>
</svg>
