<svg width="44" height="65" viewBox="0 0 44 65" fill="none" xmlns="http://www.w3.org/2000/svg">
<path d="M5.09186 40.26C4.17186 40.26 3.44786 40.568 2.91986 41.184C2.39186 41.8 2.12786 42.644 2.12786 43.716C2.12786 44.78 2.37186 45.624 2.85986 46.248C3.35586 46.864 4.09586 47.172 5.07986 47.172C5.45586 47.172 5.81186 47.14 6.14786 47.076C6.48386 47.012 6.81186 46.932 7.13186 46.836V47.772C6.81186 47.892 6.47986 47.98 6.13586 48.036C5.79986 48.092 5.39586 48.12 4.92386 48.12C4.05186 48.12 3.32386 47.94 2.73986 47.58C2.15586 47.22 1.71586 46.708 1.41986 46.044C1.13186 45.38 0.987859 44.6 0.987859 43.704C0.987859 42.84 1.14386 42.08 1.45586 41.424C1.77586 40.76 2.24386 40.244 2.85986 39.876C3.47586 39.5 4.22386 39.312 5.10386 39.312C6.00786 39.312 6.79586 39.48 7.46786 39.816L7.03586 40.728C6.77186 40.608 6.47586 40.5 6.14786 40.404C5.82786 40.308 5.47586 40.26 5.09186 40.26ZM12.6619 41.568H13.8139L11.0659 44.664L14.0419 48H12.8179L9.91389 44.736V48H8.85789V41.568H9.91389V44.688L12.6619 41.568ZM18.2695 41.448C19.0615 41.448 19.6975 41.724 20.1775 42.276C20.6655 42.828 20.9095 43.66 20.9095 44.772C20.9095 45.868 20.6655 46.7 20.1775 47.268C19.6975 47.836 19.0575 48.12 18.2575 48.12C17.7615 48.12 17.3495 48.028 17.0215 47.844C16.7015 47.652 16.4495 47.432 16.2655 47.184H16.1935C16.2095 47.32 16.2255 47.492 16.2415 47.7C16.2575 47.908 16.2655 48.088 16.2655 48.24V50.88H15.2095V41.568H16.0735L16.2175 42.444H16.2655C16.4575 42.164 16.7095 41.928 17.0215 41.736C17.3335 41.544 17.7495 41.448 18.2695 41.448ZM18.0775 42.336C17.4215 42.336 16.9575 42.52 16.6855 42.888C16.4215 43.256 16.2815 43.816 16.2655 44.568V44.772C16.2655 45.564 16.3935 46.176 16.6495 46.608C16.9135 47.032 17.3975 47.244 18.1015 47.244C18.4935 47.244 18.8135 47.136 19.0615 46.92C19.3175 46.704 19.5055 46.412 19.6255 46.044C19.7535 45.668 19.8175 45.24 19.8175 44.76C19.8175 44.024 19.6735 43.436 19.3855 42.996C19.1055 42.556 18.6695 42.336 18.0775 42.336ZM22.5923 48V41.568H23.6483V44.208H25.3163C26.1483 44.208 26.7643 44.36 27.1643 44.664C27.5643 44.968 27.7643 45.424 27.7643 46.032C27.7643 46.632 27.5683 47.112 27.1763 47.472C26.7843 47.824 26.1483 48 25.2683 48H22.5923ZM28.8323 48V41.568H29.8883V48H28.8323ZM25.1723 47.148C25.6283 47.148 26.0003 47.072 26.2883 46.92C26.5763 46.76 26.7203 46.484 26.7203 46.092C26.7203 45.7 26.5883 45.436 26.3243 45.3C26.0603 45.156 25.6803 45.084 25.1843 45.084H23.6483V47.148H25.1723ZM36.3721 42.456H34.2721V48H33.2281V42.456H31.1521V41.568H36.3721V42.456ZM40.6031 44.208C42.2751 44.208 43.1111 44.816 43.1111 46.032C43.1111 46.632 42.9071 47.112 42.4991 47.472C42.0911 47.824 41.4431 48 40.5551 48H37.6391V41.568H38.6951V44.208H40.6031ZM42.0551 46.092C42.0551 45.7 41.9151 45.436 41.6351 45.3C41.3631 45.156 40.9791 45.084 40.4831 45.084H38.6951V47.148H40.5071C40.9551 47.148 41.3231 47.068 41.6111 46.908C41.9071 46.748 42.0551 46.476 42.0551 46.092ZM5.9147 55.568V56.456H3.0467V62H1.9907V55.568H5.9147ZM10.2421 55.448C11.0341 55.448 11.6701 55.724 12.1501 56.276C12.6381 56.828 12.8821 57.66 12.8821 58.772C12.8821 59.868 12.6381 60.7 12.1501 61.268C11.6701 61.836 11.0301 62.12 10.2301 62.12C9.73411 62.12 9.32211 62.028 8.99411 61.844C8.67411 61.652 8.42211 61.432 8.23811 61.184H8.16611C8.18211 61.32 8.19811 61.492 8.21411 61.7C8.23011 61.908 8.23811 62.088 8.23811 62.24V64.88H7.18211V55.568H8.04611L8.19011 56.444H8.23811C8.43011 56.164 8.68211 55.928 8.99411 55.736C9.30611 55.544 9.72211 55.448 10.2421 55.448ZM10.0501 56.336C9.39411 56.336 8.93011 56.52 8.65811 56.888C8.39411 57.256 8.25411 57.816 8.23811 58.568V58.772C8.23811 59.564 8.36611 60.176 8.62211 60.608C8.88611 61.032 9.37011 61.244 10.0741 61.244C10.4661 61.244 10.7861 61.136 11.0341 60.92C11.2901 60.704 11.4781 60.412 11.5981 60.044C11.7261 59.668 11.7901 59.24 11.7901 58.76C11.7901 58.024 11.6461 57.436 11.3581 56.996C11.0781 56.556 10.6421 56.336 10.0501 56.336ZM17.0009 55.46C17.7849 55.46 18.3649 55.632 18.7409 55.976C19.1169 56.32 19.3049 56.868 19.3049 57.62V62H18.5369L18.3329 61.088H18.2849C18.0049 61.44 17.7089 61.7 17.3969 61.868C17.0929 62.036 16.6689 62.12 16.1249 62.12C15.5409 62.12 15.0569 61.968 14.6729 61.664C14.2889 61.352 14.0969 60.868 14.0969 60.212C14.0969 59.572 14.3489 59.08 14.8529 58.736C15.3569 58.384 16.1329 58.192 17.1809 58.16L18.2729 58.124V57.74C18.2729 57.204 18.1569 56.832 17.9249 56.624C17.6929 56.416 17.3649 56.312 16.9409 56.312C16.6049 56.312 16.2849 56.364 15.9809 56.468C15.6769 56.564 15.3929 56.676 15.1289 56.804L14.8049 56.012C15.0849 55.86 15.4169 55.732 15.8009 55.628C16.1849 55.516 16.5849 55.46 17.0009 55.46ZM17.3129 58.892C16.5129 58.924 15.9569 59.052 15.6449 59.276C15.3409 59.5 15.1889 59.816 15.1889 60.224C15.1889 60.584 15.2969 60.848 15.5129 61.016C15.7369 61.184 16.0209 61.268 16.3649 61.268C16.9089 61.268 17.3609 61.12 17.7209 60.824C18.0809 60.52 18.2609 60.056 18.2609 59.432V58.856L17.3129 58.892ZM25.1315 55.472C25.7715 55.528 26.3275 55.696 26.7995 55.976C27.2795 56.256 27.6515 56.632 27.9155 57.104C28.1795 57.576 28.3115 58.136 28.3115 58.784C28.3115 59.752 28.0275 60.524 27.4595 61.1C26.8995 61.676 26.1235 62.008 25.1315 62.096V64.88H24.0995V62.096C23.4675 62.04 22.9115 61.876 22.4315 61.604C21.9515 61.324 21.5795 60.948 21.3155 60.476C21.0515 59.996 20.9195 59.432 20.9195 58.784C20.9195 57.808 21.1995 57.032 21.7595 56.456C22.3275 55.88 23.1195 55.552 24.1355 55.472V52.88H25.1315V55.472ZM24.1355 56.348C23.3995 56.42 22.8635 56.664 22.5275 57.08C22.1915 57.488 22.0235 58.056 22.0235 58.784C22.0235 59.512 22.1915 60.084 22.5275 60.5C22.8715 60.916 23.4075 61.16 24.1355 61.232V56.348ZM25.1315 61.232C25.8515 61.152 26.3795 60.904 26.7155 60.488C27.0515 60.072 27.2195 59.504 27.2195 58.784C27.2195 58.064 27.0475 57.5 26.7035 57.092C26.3675 56.684 25.8435 56.44 25.1315 56.36V61.232ZM30.9828 59.492C30.9828 59.588 30.9788 59.732 30.9708 59.924C30.9628 60.116 30.9508 60.308 30.9348 60.5C30.9268 60.692 30.9188 60.844 30.9108 60.956L34.3548 55.568H35.6508V62H34.6668V58.208C34.6668 58.08 34.6668 57.912 34.6668 57.704C34.6748 57.496 34.6828 57.292 34.6908 57.092C34.6988 56.884 34.7068 56.728 34.7148 56.624L31.2948 62H29.9868V55.568H30.9828V59.492ZM41.5017 55.568H42.6537L39.9057 58.664L42.8817 62H41.6577L38.7537 58.736V62H37.6977V55.568H38.7537V58.688L41.5017 55.568Z" fill="white"/>
<path fill-rule="evenodd" clip-rule="evenodd" d="M31.2816 29.6927C28.8657 31.157 26.0313 32 23 32C14.1634 32 7 24.8366 7 16L12.6 16C12.6 21.7438 17.2562 26.4 23 26.4C25.0201 26.4 26.9056 25.8241 28.5014 24.8274L31.2816 29.6927ZM32.6104 28.7933C35.464 26.6463 37.5761 23.5668 38.494 20.0075L33.0893 18.5334C32.5617 20.6411 31.391 22.4939 29.7977 23.8711L32.6104 28.7933ZM33.3574 16.9481C33.3856 16.6359 33.4 16.3196 33.4 16C33.4 10.2562 28.7438 5.60001 23 5.60001C17.8003 5.60001 13.4919 9.41586 12.7223 14.4H7.079C7.88176 6.31468 14.7034 0 23 0C31.8366 0 39 7.16344 39 16C39 16.8285 38.937 17.6422 38.8156 18.4367L33.3574 16.9481Z" fill="white"/>
</svg>
