<svg width="24" height="24" viewBox="0 0 24 24" fill="none" xmlns="http://www.w3.org/2000/svg">
<path opacity="0.5" d="M4.80005 3L16.5 3L18.1125 5.94375V21H4.80005V3Z" fill="#4378FF"/>
<path fill-rule="evenodd" clip-rule="evenodd" d="M4.22858 3.07282C3.6852 3.24652 3.21941 3.72446 3.05944 4.27245C3.00604 4.45538 3 5.2428 3 12.0035C3 19.2858 3.00233 19.5383 3.07106 19.7591C3.24304 20.3117 3.71786 20.7787 4.27245 20.9406C4.42871 20.9862 4.653 21 5.23609 21H5.9961L6.00825 18.1594C6.0201 15.3789 6.02205 15.3138 6.09998 15.0845C6.29685 14.505 6.74996 14.0645 7.33125 13.8873C7.54384 13.8225 7.80263 13.8188 12.0188 13.8188C16.2729 13.8188 16.4909 13.822 16.6875 13.8886C17.2719 14.0865 17.7066 14.5153 17.9 15.0845C17.978 15.3138 17.9799 15.3789 17.9918 18.1594L18.0039 21H18.7674C19.4113 21 19.5666 20.9889 19.7591 20.9289C20.3117 20.757 20.7787 20.2821 20.9406 19.7276C20.9938 19.5452 21 18.8679 21 13.2663C21 7.90181 20.9923 6.99431 20.9462 6.9075C20.8812 6.78521 17.1908 3.10028 17.0744 3.0414C17.0234 3.01564 16.7302 3 16.298 3H15.6035L15.5906 5.50313C15.5811 7.35529 15.5658 8.0421 15.5316 8.14414C15.415 8.49266 15.0721 8.82829 14.7249 8.93381C14.4992 9.00236 9.50093 9.00244 9.27536 8.93385C8.9217 8.82637 8.58713 8.49896 8.46836 8.14414C8.43424 8.0421 8.41886 7.35529 8.40938 5.50313L8.39655 3L6.42015 3.00203C4.60984 3.00386 4.42568 3.00982 4.22858 3.07282Z" fill="#4378FF"/>
</svg>
