<svg width="16" height="16" viewBox="0 0 16 16" fill="none" xmlns="http://www.w3.org/2000/svg">
    <path fill-rule="evenodd" clip-rule="evenodd"
          d="M8 0C3.58172 0 0 3.58172 0 8C0 12.4183 3.58172 16 8 16C12.4183 16 16 12.4183 16 8C15.9938 3.58428 12.4157 0.00616906 8 0ZM8.0008 14.5468C5.35279 14.5472 2.96535 12.9523 1.95178 10.5059C0.938207 8.05957 1.49813 5.24354 3.37045 3.371C5.24276 1.49846 8.05872 0.9382 10.5052 1.95148C12.9517 2.96475 14.5468 5.35201 14.5468 8.00002C14.5442 11.6144 11.6151 14.5438 8.0008 14.5468ZM8.02932 2.71507C7.81454 2.59107 7.54992 2.59107 7.33513 2.71507C7.12035 2.83908 6.98804 3.06825 6.98804 3.31626V9.29807C6.98837 9.55406 7.12802 9.78967 7.35252 9.91268L7.35932 9.91614C7.45878 9.96675 7.56946 9.99357 7.68106 9.99445C7.82244 9.99511 7.96055 9.95195 8.07639 9.87092L12.1237 7.07636L12.1258 7.07486C12.4364 6.85562 12.517 6.4294 12.3079 6.11197L12.3032 6.10531C12.0811 5.79105 11.6482 5.71255 11.3299 5.92883L8.37642 7.97036V3.31626C8.37642 3.06825 8.24411 2.83908 8.02932 2.71507Z"
          fill="#D7DBE0"/>
</svg>
