<svg width="25" height="22" viewBox="0 0 25 22" fill="none" xmlns="http://www.w3.org/2000/svg">
    <path d="M6.77333 21.6667C8.74493 21.7327 10.7097 21.4027 12.5517 20.6964C14.3936 19.9901 16.0752 18.9217 17.4972 17.5544C18.9192 16.1871 20.0527 14.5487 20.8306 12.7359C21.6086 10.9231 22.0153 8.97268 22.0267 7.00002C22.9302 5.8819 23.6011 4.59446 24 3.21335C24.0298 3.10423 24.0274 2.98883 23.9931 2.88105C23.9588 2.77327 23.8941 2.67769 23.8067 2.60584C23.7194 2.53398 23.6131 2.48891 23.5007 2.47605C23.3884 2.46319 23.2747 2.48309 23.1733 2.53335C22.7006 2.76089 22.1685 2.83439 21.6518 2.74349C21.1351 2.6526 20.66 2.40189 20.2933 2.02668C19.8253 1.51412 19.2591 1.10073 18.6283 0.810988C17.9976 0.52125 17.3151 0.361067 16.6213 0.33993C15.9275 0.318793 15.2365 0.437131 14.5893 0.687934C13.942 0.938736 13.3517 1.3169 12.8533 1.80002C12.1709 2.4609 11.6711 3.28707 11.4024 4.19825C11.1337 5.10943 11.1053 6.07462 11.32 7.00002C6.85333 7.26669 3.78667 5.14668 1.33333 2.24002C1.25963 2.15655 1.16322 2.09636 1.05587 2.06678C0.948522 2.0372 0.834884 2.03952 0.728833 2.07346C0.622782 2.10739 0.528908 2.17148 0.458675 2.25788C0.388441 2.34428 0.344888 2.44927 0.333333 2.56002C-0.134041 5.15258 0.203106 7.82608 1.29949 10.2214C2.39588 12.6168 4.19899 14.6193 6.46667 15.96C4.94618 17.7038 2.81094 18.7929 0.506667 19C0.383216 19.0205 0.269256 19.079 0.180735 19.1675C0.0922145 19.2559 0.033564 19.3699 0.0129917 19.4933C-0.00758061 19.6167 0.0109551 19.7435 0.0660045 19.8559C0.121054 19.9683 0.209862 20.0606 0.32 20.12C2.32469 21.1218 4.53231 21.6509 6.77333 21.6667"
          fill="#7F818D"/>
</svg>
