<svg width="32" height="20" viewBox="0 0 32 20" fill="none" xmlns="http://www.w3.org/2000/svg">
<path fill-rule="evenodd" clip-rule="evenodd" d="M28.4833 13.6768C28.4833 13.6768 31.0705 16.232 31.7105 17.4144C31.7229 17.4314 31.7326 17.4503 31.7393 17.4704C32.0001 17.9072 32.0641 18.2496 31.9361 18.5024C31.7201 18.92 30.9889 19.1296 30.7409 19.1472H26.1681C25.8497 19.1472 25.1873 19.064 24.3809 18.5072C23.7649 18.0768 23.1521 17.368 22.5585 16.6752C21.6721 15.6464 20.9057 14.7536 20.1297 14.7536C20.0316 14.7534 19.9343 14.7696 19.8417 14.8016C19.2545 14.9872 18.5089 15.824 18.5089 18.0528C18.5089 18.7504 17.9585 19.1472 17.5729 19.1472H15.4785C14.7649 19.1472 11.0497 18.8976 7.75525 15.424C3.71845 11.1712 0.0928544 2.63998 0.0576544 2.56478C-0.167946 2.01278 0.305654 1.71198 0.817654 1.71198H5.43525C6.05445 1.71198 6.25605 2.08638 6.39685 2.42238C6.56005 2.80798 7.16485 4.35038 8.15685 6.08318C9.76325 8.90238 10.7505 10.0496 11.5393 10.0496C11.6874 10.05 11.8331 10.0114 11.9617 9.93758C12.9921 9.37118 12.8001 5.69118 12.7521 4.93278C12.7521 4.78558 12.7505 3.28958 12.2225 2.56638C11.8449 2.04798 11.2017 1.84638 10.8129 1.77278C10.9169 1.62238 11.1377 1.39198 11.4209 1.25598C12.1265 0.903983 13.4017 0.852783 14.6673 0.852783H15.3697C16.7425 0.871983 17.0977 0.959983 17.5969 1.08638C18.6017 1.32638 18.6209 1.97758 18.5329 4.19518C18.5073 4.82878 18.4801 5.54238 18.4801 6.38238C18.4801 6.56158 18.4721 6.76158 18.4721 6.96478C18.4417 8.10238 18.4017 9.38398 19.2049 9.91038C19.309 9.97528 19.4293 10.0096 19.5521 10.0096C19.8305 10.0096 20.6641 10.0096 22.9249 6.12958C23.9169 4.41598 24.6849 2.39518 24.7377 2.24318C24.7825 2.15838 24.9169 1.91998 25.0801 1.82398C25.1961 1.76222 25.3262 1.73136 25.4577 1.73438H30.8897C31.4817 1.73438 31.8833 1.82398 31.9617 2.04798C32.0929 2.41118 31.9361 3.51998 29.4561 6.87358C29.0385 7.43198 28.6721 7.91518 28.3505 8.33758C26.1025 11.288 26.1025 11.4368 28.4833 13.6768Z" fill="#7F818D"/>
</svg>
