<svg width="24" height="24" viewBox="0 0 24 24" fill="none" xmlns="http://www.w3.org/2000/svg">
    <path d="M20.97 16.08C20.73 18.75 18.8 20.5 16 20.5H7C4.24 20.5 2 18.26 2 15.5V8.5C2 5.78 3.64 3.88 6.19 3.56C6.45 3.52 6.72 3.5 7 3.5H16C16.26 3.5 16.51 3.51 16.75 3.55C19.14 3.83 20.76 5.5 20.97 7.92C21 8.21 20.76 8.45 20.47 8.45H18.92C17.96 8.45 17.07 8.82 16.43 9.48C15.67 10.22 15.29 11.26 15.38 12.3C15.54 14.12 17.14 15.55 19.04 15.55H20.47C20.76 15.55 21 15.79 20.97 16.08Z"
          fill="#7F818D"/>
    <path opacity="0.4"
          d="M21.9999 10.8126V13.2539C21.9999 13.9057 21.5396 14.4389 20.9538 14.4626H18.9034C17.7736 14.4626 16.738 13.5264 16.6438 12.2466C16.5811 11.5 16.8321 10.8008 17.2715 10.3149C17.6585 9.8646 18.1921 9.60388 18.7779 9.60388H20.9538C21.5396 9.62758 21.9999 10.1609 21.9999 10.8126Z"
          fill="#7F818D"/>
</svg>
