<svg width="24" height="16" viewBox="0 0 24 16" fill="none" xmlns="http://www.w3.org/2000/svg">
    <path fill-rule="evenodd" clip-rule="evenodd"
          d="M4 0C1.79086 0 0 1.79086 0 4V12C0 14.2091 1.79086 16 4 16H20C22.2091 16 24 14.2091 24 12V4C24 1.79086 22.2091 0 20 0H4ZM4 2C2.89543 2 2 2.89543 2 4V12C2 13.1046 2.89543 14 4 14H20C21.1046 14 22 13.1046 22 12V4C22 2.89543 21.1046 2 20 2H4Z"
          fill="#6FCA9E"/>
    <rect opacity="0.5" x="2" y="2" width="20" height="12" rx="2" fill="#6FCA9E"/>
    <rect x="3" y="6" width="3" height="4" rx="1.5" fill="#6FCA9E"/>
    <rect x="18" y="6" width="3" height="4" rx="1.5" fill="#6FCA9E"/>
    <ellipse cx="12" cy="8" rx="3" ry="4" fill="#6FCA9E"/>
</svg>
