<svg width="16" height="16" viewBox="0 0 16 16" fill="none" xmlns="http://www.w3.org/2000/svg">
<path fill-rule="evenodd" clip-rule="evenodd" d="M8.00001 0C7.28204 0 6.70001 0.582029 6.70001 1.3V6.69999H1.3C0.58203 6.69999 0 7.28202 0 7.99999C0 8.71796 0.582029 9.29999 1.3 9.29999H6.70001V14.7C6.70001 15.418 7.28204 16 8.00001 16C8.71798 16 9.30001 15.418 9.30001 14.7V9.29999H14.7C15.418 9.29999 16 8.71796 16 7.99999C16 7.28202 15.418 6.69999 14.7 6.69999H9.30001V1.3C9.30001 0.58203 8.71798 0 8.00001 0Z" fill="#C4C4C4"/>
</svg>
