<svg width="16" height="16" viewBox="0 0 16 16" fill="none" xmlns="http://www.w3.org/2000/svg">
    <rect width="16" height="16" rx="8" fill="#EFF2F5"/>
    <path fill-rule="evenodd" clip-rule="evenodd"
          d="M7.18273 8.22853C7.18042 8.21999 7.17829 8.21141 7.17634 8.20279L4.8144 5.72868C4.57913 5.48224 4.58365 5.09306 4.82456 4.85215C5.0735 4.6032 5.47855 4.6079 5.72166 4.86255L7.99993 7.24901L10.2782 4.86255C10.5213 4.6079 10.9264 4.6032 11.1753 4.85215C11.4162 5.09306 11.4207 5.48224 11.1855 5.72868L8.82352 8.20278C8.82158 8.2114 8.81945 8.21998 8.81713 8.22853L11.1803 10.6832C11.4173 10.9294 11.4136 11.3201 11.1719 11.5617C10.9237 11.81 10.52 11.8061 10.2766 11.5532L7.99993 9.18839L5.72331 11.5532C5.47983 11.8061 5.07619 11.81 4.82795 11.5617C4.5863 11.3201 4.58258 10.9294 4.81961 10.6832L7.18273 8.22853Z"
          fill="#D0D1D7"/>
</svg>
