<svg width="40" height="40" viewBox="0 0 40 40" fill="none" xmlns="http://www.w3.org/2000/svg">
    <rect width="40" height="40" rx="20" fill="#EFF2F5"/>
    <path d="M22.3511 13.3428L11.3468 24.3594C11.2914 24.415 11.2515 24.4852 11.2324 24.5606L10.0127 29.4614C9.97622 29.609 10.0195 29.7659 10.1271 29.8735C10.2085 29.955 10.3193 30.0001 10.4328 30.0001C10.4675 30.0001 10.503 29.9958 10.5376 29.9871L15.4333 28.7659C15.5096 28.7469 15.579 28.707 15.6343 28.6516L26.6396 17.6357L22.3511 13.3428Z"
          fill="#4378FF"/>
    <path d="M29.366 11.8406L28.141 10.6144C27.3223 9.79481 25.8954 9.79561 25.0777 10.6144L23.5771 12.1164L27.8655 16.4092L29.366 14.9072C29.7749 14.4979 30.0002 13.9533 30.0002 13.374C30.0002 12.7947 29.7749 12.25 29.366 11.8406Z"
          fill="#4378FF"/>
</svg>
