<svg width="32" height="32" viewBox="0 0 32 32" fill="none" xmlns="http://www.w3.org/2000/svg">
<rect width="32" height="32" rx="16" fill="#EFF2F5"/>
<path fill-rule="evenodd" clip-rule="evenodd" d="M12 16C13.3113 16 14.4262 15.1586 14.8341 13.9863C14.8881 13.9953 14.9435 14 15 14H24C24.5523 14 25 13.5523 25 13C25 12.4477 24.5523 12 24 12H15C14.9435 12 14.8881 12.0047 14.8341 12.0137C14.4262 10.8414 13.3113 10 12 10C10.6887 10 9.57385 10.8414 9.1659 12.0137C9.11194 12.0047 9.05652 12 9 12H8C7.44772 12 7 12.4477 7 13C7 13.5523 7.44772 14 8 14H9C9.05652 14 9.11194 13.9953 9.1659 13.9863C9.57385 15.1586 10.6887 16 12 16ZM12 14C12.5523 14 13 13.5523 13 13C13 12.4477 12.5523 12 12 12C11.4477 12 11 12.4477 11 13C11 13.5523 11.4477 14 12 14ZM20 22C18.6887 22 17.5738 21.1586 17.1659 19.9863C17.1119 19.9953 17.0565 20 17 20H8C7.44772 20 7 19.5523 7 19C7 18.4477 7.44772 18 8 18H17C17.0565 18 17.1119 18.0047 17.1659 18.0137C17.5738 16.8414 18.6887 16 20 16C21.3113 16 22.4262 16.8414 22.8341 18.0137C22.8881 18.0047 22.9435 18 23 18H24C24.5523 18 25 18.4477 25 19C25 19.5523 24.5523 20 24 20H23C22.9435 20 22.8881 19.9953 22.8341 19.9863C22.4262 21.1586 21.3113 22 20 22ZM20 20C19.4477 20 19 19.5523 19 19C19 18.4477 19.4477 18 20 18C20.5523 18 21 18.4477 21 19C21 19.5523 20.5523 20 20 20Z" fill="#4378FF"/>
</svg>
