<svg width="12" height="14" viewBox="0 0 12 14" fill="none" xmlns="http://www.w3.org/2000/svg">
<path d="M11.3332 6.99998C11.3332 6.26465 10.7352 5.66665 9.99984 5.66665H9.33317V3.66665C9.33317 1.82865 7.83784 0.333313 5.99984 0.333313C4.16184 0.333313 2.6665 1.82865 2.6665 3.66665V5.66665H1.99984C1.2645 5.66665 0.666504 6.26465 0.666504 6.99998V12.3333C0.666504 13.0686 1.2645 13.6666 1.99984 13.6666H9.99984C10.7352 13.6666 11.3332 13.0686 11.3332 12.3333V6.99998ZM3.99984 3.66665C3.99984 2.56398 4.89717 1.66665 5.99984 1.66665C7.1025 1.66665 7.99984 2.56398 7.99984 3.66665V5.66665H3.99984V3.66665Z" fill="#D7DBE0"/>
</svg>
