<svg width="40" height="40" viewBox="0 0 40 40" fill="none" xmlns="http://www.w3.org/2000/svg">
<path d="M36.6668 37.9167H3.3335C2.65016 37.9167 2.0835 37.3501 2.0835 36.6667C2.0835 35.9834 2.65016 35.4167 3.3335 35.4167H36.6668C37.3502 35.4167 37.9168 35.9834 37.9168 36.6667C37.9168 37.3501 37.3502 37.9167 36.6668 37.9167Z" fill="#2CC0FF"/>
<path opacity="0.4" d="M34.9998 16.6334V36.6667H4.9165L4.99984 16.6167C4.99984 15.6 5.4665 14.6335 6.28317 14.0001L17.9498 4.93345C19.1498 3.98345 20.8498 3.98345 22.0498 4.93345L24.2832 6.66674L31.6665 12.4001L33.7165 14.0001C34.5332 14.6335 34.9998 15.6 34.9998 16.6334Z" fill="#2CC0FF"/>
<path d="M21.6668 28.3333H18.3335C16.9502 28.3333 15.8335 29.4499 15.8335 30.8333V36.6666H24.1668V30.8333C24.1668 29.4499 23.0502 28.3333 21.6668 28.3333Z" fill="#2CC0FF"/>
<path d="M15.8335 22.9166H12.5002C11.5835 22.9166 10.8335 22.1666 10.8335 21.2499V18.7499C10.8335 17.8333 11.5835 17.0833 12.5002 17.0833H15.8335C16.7502 17.0833 17.5002 17.8333 17.5002 18.7499V21.2499C17.5002 22.1666 16.7502 22.9166 15.8335 22.9166Z" fill="#2CC0FF"/>
<path d="M27.5 22.9166H24.1667C23.25 22.9166 22.5 22.1666 22.5 21.2499V18.7499C22.5 17.8333 23.25 17.0833 24.1667 17.0833H27.5C28.4167 17.0833 29.1667 17.8333 29.1667 18.7499V21.2499C29.1667 22.1666 28.4167 22.9166 27.5 22.9166Z" fill="#2CC0FF"/>
<path d="M31.6665 12.4001L24.2832 6.66675H29.9665C30.8832 6.66675 31.6332 7.40006 31.6332 8.31673L31.6665 12.4001Z" fill="#2CC0FF"/>
</svg>
