<svg width="55" height="65" viewBox="0 0 55 65" fill="none" xmlns="http://www.w3.org/2000/svg">
    <path d="M1.38275 48V39.432H7.81475V48H6.74675V40.38H2.46275V48H1.38275ZM15.6081 44.772C15.6081 45.836 15.3361 46.66 14.7921 47.244C14.2561 47.828 13.5281 48.12 12.6081 48.12C12.0401 48.12 11.5321 47.992 11.0841 47.736C10.6441 47.472 10.2961 47.092 10.0401 46.596C9.78409 46.092 9.65609 45.484 9.65609 44.772C9.65609 43.708 9.92409 42.888 10.4601 42.312C10.9961 41.736 11.7241 41.448 12.6441 41.448C13.2281 41.448 13.7401 41.58 14.1801 41.844C14.6281 42.1 14.9761 42.476 15.2241 42.972C15.4801 43.46 15.6081 44.06 15.6081 44.772ZM10.7481 44.772C10.7481 45.532 10.8961 46.136 11.1921 46.584C11.4961 47.024 11.9761 47.244 12.6321 47.244C13.2801 47.244 13.7561 47.024 14.0601 46.584C14.3641 46.136 14.5161 45.532 14.5161 44.772C14.5161 44.012 14.3641 43.416 14.0601 42.984C13.7561 42.552 13.2761 42.336 12.6201 42.336C11.9641 42.336 11.4881 42.552 11.1921 42.984C10.8961 43.416 10.7481 44.012 10.7481 44.772ZM21.0857 41.568H22.2377L19.4897 44.664L22.4657 48H21.2417L18.3377 44.736V48H17.2817V41.568H18.3377V44.688L21.0857 41.568ZM26.0693 41.46C26.8533 41.46 27.4333 41.632 27.8093 41.976C28.1853 42.32 28.3733 42.868 28.3733 43.62V48H27.6053L27.4013 47.088H27.3533C27.0733 47.44 26.7773 47.7 26.4653 47.868C26.1613 48.036 25.7373 48.12 25.1933 48.12C24.6093 48.12 24.1253 47.968 23.7413 47.664C23.3573 47.352 23.1653 46.868 23.1653 46.212C23.1653 45.572 23.4173 45.08 23.9213 44.736C24.4253 44.384 25.2013 44.192 26.2493 44.16L27.3413 44.124V43.74C27.3413 43.204 27.2253 42.832 26.9933 42.624C26.7613 42.416 26.4333 42.312 26.0093 42.312C25.6733 42.312 25.3533 42.364 25.0493 42.468C24.7453 42.564 24.4613 42.676 24.1973 42.804L23.8733 42.012C24.1533 41.86 24.4853 41.732 24.8693 41.628C25.2533 41.516 25.6533 41.46 26.0693 41.46ZM26.3813 44.892C25.5813 44.924 25.0253 45.052 24.7133 45.276C24.4093 45.5 24.2573 45.816 24.2573 46.224C24.2573 46.584 24.3653 46.848 24.5813 47.016C24.8053 47.184 25.0893 47.268 25.4333 47.268C25.9773 47.268 26.4293 47.12 26.7893 46.824C27.1493 46.52 27.3293 46.056 27.3293 45.432V44.856L26.3813 44.892ZM32.0518 41.448C32.7878 41.448 33.3718 41.596 33.8038 41.892C34.2438 42.18 34.4638 42.596 34.4638 43.14C34.4638 43.532 34.3558 43.844 34.1398 44.076C33.9238 44.3 33.6278 44.464 33.2518 44.568V44.616C33.5078 44.688 33.7438 44.788 33.9598 44.916C34.1758 45.044 34.3478 45.212 34.4758 45.42C34.6118 45.628 34.6798 45.896 34.6798 46.224C34.6798 46.76 34.4558 47.212 34.0078 47.58C33.5678 47.94 32.8758 48.12 31.9318 48.12C31.4678 48.12 31.0478 48.08 30.6718 48C30.2958 47.928 29.9838 47.828 29.7358 47.7V46.752C30.0078 46.88 30.3278 46.996 30.6958 47.1C31.0718 47.204 31.4798 47.256 31.9198 47.256C32.3998 47.256 32.8038 47.176 33.1318 47.016C33.4678 46.848 33.6358 46.564 33.6358 46.164C33.6358 45.444 33.0238 45.084 31.7998 45.084H30.9358V44.22H31.6318C32.1838 44.22 32.6238 44.148 32.9518 44.004C33.2878 43.852 33.4558 43.596 33.4558 43.236C33.4558 42.932 33.3278 42.704 33.0718 42.552C32.8238 42.4 32.4638 42.324 31.9918 42.324C31.6398 42.324 31.3278 42.36 31.0558 42.432C30.7918 42.496 30.4998 42.596 30.1798 42.732L29.8078 41.892C30.4798 41.596 31.2278 41.448 32.0518 41.448ZM38.6787 41.46C39.4627 41.46 40.0427 41.632 40.4187 41.976C40.7947 42.32 40.9827 42.868 40.9827 43.62V48H40.2147L40.0107 47.088H39.9627C39.6827 47.44 39.3867 47.7 39.0747 47.868C38.7707 48.036 38.3467 48.12 37.8027 48.12C37.2187 48.12 36.7347 47.968 36.3507 47.664C35.9667 47.352 35.7747 46.868 35.7747 46.212C35.7747 45.572 36.0267 45.08 36.5307 44.736C37.0347 44.384 37.8107 44.192 38.8587 44.16L39.9507 44.124V43.74C39.9507 43.204 39.8347 42.832 39.6027 42.624C39.3707 42.416 39.0427 42.312 38.6187 42.312C38.2827 42.312 37.9627 42.364 37.6587 42.468C37.3547 42.564 37.0707 42.676 36.8067 42.804L36.4827 42.012C36.7627 41.86 37.0947 41.732 37.4787 41.628C37.8627 41.516 38.2627 41.46 38.6787 41.46ZM38.9907 44.892C38.1907 44.924 37.6347 45.052 37.3227 45.276C37.0187 45.5 36.8667 45.816 36.8667 46.224C36.8667 46.584 36.9747 46.848 37.1907 47.016C37.4147 47.184 37.6987 47.268 38.0427 47.268C38.5867 47.268 39.0387 47.12 39.3987 46.824C39.7587 46.52 39.9387 46.056 39.9387 45.432V44.856L38.9907 44.892ZM47.4092 42.456H45.3092V48H44.2652V42.456H42.1892V41.568H47.4092V42.456ZM51.6403 44.208C53.3123 44.208 54.1483 44.816 54.1483 46.032C54.1483 46.632 53.9443 47.112 53.5363 47.472C53.1283 47.824 52.4803 48 51.5923 48H48.6763V41.568H49.7323V44.208H51.6403ZM53.0923 46.092C53.0923 45.7 52.9523 45.436 52.6723 45.3C52.4003 45.156 52.0163 45.084 51.5203 45.084H49.7323V47.148H51.5443C51.9923 47.148 52.3603 47.068 52.6483 46.908C52.9443 46.748 53.0923 46.476 53.0923 46.092ZM11.4147 55.568V56.456H8.5467V62H7.4907V55.568H11.4147ZM15.7421 55.448C16.5341 55.448 17.1701 55.724 17.6501 56.276C18.1381 56.828 18.3821 57.66 18.3821 58.772C18.3821 59.868 18.1381 60.7 17.6501 61.268C17.1701 61.836 16.5301 62.12 15.7301 62.12C15.2341 62.12 14.8221 62.028 14.4941 61.844C14.1741 61.652 13.9221 61.432 13.7381 61.184H13.6661C13.6821 61.32 13.6981 61.492 13.7141 61.7C13.7301 61.908 13.7381 62.088 13.7381 62.24V64.88H12.6821V55.568H13.5461L13.6901 56.444H13.7381C13.9301 56.164 14.1821 55.928 14.4941 55.736C14.8061 55.544 15.2221 55.448 15.7421 55.448ZM15.5501 56.336C14.8941 56.336 14.4301 56.52 14.1581 56.888C13.8941 57.256 13.7541 57.816 13.7381 58.568V58.772C13.7381 59.564 13.8661 60.176 14.1221 60.608C14.3861 61.032 14.8701 61.244 15.5741 61.244C15.9661 61.244 16.2861 61.136 16.5341 60.92C16.7901 60.704 16.9781 60.412 17.0981 60.044C17.2261 59.668 17.2901 59.24 17.2901 58.76C17.2901 58.024 17.1461 57.436 16.8581 56.996C16.5781 56.556 16.1421 56.336 15.5501 56.336ZM22.5009 55.46C23.2849 55.46 23.8649 55.632 24.2409 55.976C24.6169 56.32 24.8049 56.868 24.8049 57.62V62H24.0369L23.8329 61.088H23.7849C23.5049 61.44 23.2089 61.7 22.8969 61.868C22.5929 62.036 22.1689 62.12 21.6249 62.12C21.0409 62.12 20.5569 61.968 20.1729 61.664C19.7889 61.352 19.5969 60.868 19.5969 60.212C19.5969 59.572 19.8489 59.08 20.3529 58.736C20.8569 58.384 21.6329 58.192 22.6809 58.16L23.7729 58.124V57.74C23.7729 57.204 23.6569 56.832 23.4249 56.624C23.1929 56.416 22.8649 56.312 22.4409 56.312C22.1049 56.312 21.7849 56.364 21.4809 56.468C21.1769 56.564 20.8929 56.676 20.6289 56.804L20.3049 56.012C20.5849 55.86 20.9169 55.732 21.3009 55.628C21.6849 55.516 22.0849 55.46 22.5009 55.46ZM22.8129 58.892C22.0129 58.924 21.4569 59.052 21.1449 59.276C20.8409 59.5 20.6889 59.816 20.6889 60.224C20.6889 60.584 20.7969 60.848 21.0129 61.016C21.2369 61.184 21.5209 61.268 21.8649 61.268C22.4089 61.268 22.8609 61.12 23.2209 60.824C23.5809 60.52 23.7609 60.056 23.7609 59.432V58.856L22.8129 58.892ZM30.6315 55.472C31.2715 55.528 31.8275 55.696 32.2995 55.976C32.7795 56.256 33.1515 56.632 33.4155 57.104C33.6795 57.576 33.8115 58.136 33.8115 58.784C33.8115 59.752 33.5275 60.524 32.9595 61.1C32.3995 61.676 31.6235 62.008 30.6315 62.096V64.88H29.5995V62.096C28.9675 62.04 28.4115 61.876 27.9315 61.604C27.4515 61.324 27.0795 60.948 26.8155 60.476C26.5515 59.996 26.4195 59.432 26.4195 58.784C26.4195 57.808 26.6995 57.032 27.2595 56.456C27.8275 55.88 28.6195 55.552 29.6355 55.472V52.88H30.6315V55.472ZM29.6355 56.348C28.8995 56.42 28.3635 56.664 28.0275 57.08C27.6915 57.488 27.5235 58.056 27.5235 58.784C27.5235 59.512 27.6915 60.084 28.0275 60.5C28.3715 60.916 28.9075 61.16 29.6355 61.232V56.348ZM30.6315 61.232C31.3515 61.152 31.8795 60.904 32.2155 60.488C32.5515 60.072 32.7195 59.504 32.7195 58.784C32.7195 58.064 32.5475 57.5 32.2035 57.092C31.8675 56.684 31.3435 56.44 30.6315 56.36V61.232ZM36.4828 59.492C36.4828 59.588 36.4788 59.732 36.4708 59.924C36.4628 60.116 36.4508 60.308 36.4348 60.5C36.4268 60.692 36.4188 60.844 36.4108 60.956L39.8548 55.568H41.1508V62H40.1668V58.208C40.1668 58.08 40.1668 57.912 40.1668 57.704C40.1748 57.496 40.1828 57.292 40.1908 57.092C40.1988 56.884 40.2068 56.728 40.2148 56.624L36.7948 62H35.4868V55.568H36.4828V59.492ZM47.0017 55.568H48.1537L45.4057 58.664L48.3817 62H47.1577L44.2537 58.736V62H43.1977V55.568H44.2537V58.688L47.0017 55.568Z"
          fill="#4378FF"/>
    <path fill-rule="evenodd" clip-rule="evenodd"
          d="M36.2816 29.6927C33.8657 31.157 31.0313 32 28 32C19.1634 32 12 24.8366 12 16L17.6 16C17.6 21.7438 22.2562 26.4 28 26.4C30.0201 26.4 31.9056 25.8241 33.5014 24.8274L36.2816 29.6927ZM37.6104 28.7933C40.464 26.6463 42.5761 23.5668 43.494 20.0075L38.0893 18.5334C37.5617 20.6411 36.391 22.4939 34.7977 23.8711L37.6104 28.7933ZM38.3574 16.9481C38.3856 16.6359 38.4 16.3196 38.4 16C38.4 10.2562 33.7438 5.60001 28 5.60001C22.8003 5.60001 18.4919 9.41586 17.7223 14.4H12.079C12.8818 6.31468 19.7034 0 28 0C36.8366 0 44 7.16344 44 16C44 16.8285 43.937 17.6422 43.8156 18.4367L38.3574 16.9481Z"
          fill="#4378FF"/>
</svg>
