<svg width="40" height="40" viewBox="0 0 40 40" fill="none" xmlns="http://www.w3.org/2000/svg">
    <path opacity="0.4"
          d="M18.266 3.4333L9.09935 6.86664C7.34935 7.5333 5.91602 9.59997 5.91602 11.4833V24.9833C5.91602 26.3333 6.79935 28.1166 7.88268 28.9166L17.0493 35.7666C18.666 36.9833 21.316 36.9833 22.9327 35.7666L32.0993 28.9166C33.1827 28.1 34.066 26.3333 34.066 24.9833V11.4833C34.066 9.61664 32.6327 7.5333 30.8827 6.8833L21.716 3.44997C20.7827 3.0833 19.216 3.0833 18.266 3.4333Z"
          fill="#36B2AB"/>
    <path d="M17.7671 23.7167C17.4504 23.7167 17.1337 23.6 16.8837 23.35L14.2004 20.6667C13.7171 20.1834 13.7171 19.3834 14.2004 18.9C14.6837 18.4167 15.4837 18.4167 15.9671 18.9L17.7671 20.7L24.0504 14.4167C24.5337 13.9334 25.3337 13.9334 25.8171 14.4167C26.3004 14.9 26.3004 15.7 25.8171 16.1834L18.6504 23.35C18.4004 23.6 18.0837 23.7167 17.7671 23.7167Z"
          fill="#36B2AB"/>
</svg>
