<svg width="24" height="24" viewBox="0 0 24 24" fill="none" xmlns="http://www.w3.org/2000/svg">
<path opacity="0.4" d="M21.08 15.42V8.58C21.08 7.46 20.48 6.41996 19.51 5.84996L13.57 2.41997C12.6 1.85997 11.4 1.85997 10.42 2.41997L4.47998 5.84996C3.50998 6.40996 2.90997 7.45 2.90997 8.58V15.42C2.90997 16.54 3.50998 17.58 4.47998 18.15L10.42 21.58C11.39 22.14 12.59 22.14 13.57 21.58L19.51 18.15C20.48 17.58 21.08 16.55 21.08 15.42Z" fill="#4378FF"/>
<path d="M12 10.25C11.59 10.25 11.25 10.59 11.25 11V16.25C11.25 16.66 11.59 17 12 17C12.41 17 12.75 16.66 12.75 16.25V11C12.75 10.59 12.41 10.25 12 10.25Z" fill="#4378FF"/>
<path d="M12 6.75002C11.87 6.75002 11.74 6.78004 11.62 6.83004C11.49 6.88004 11.39 6.95 11.29 7.04C11.2 7.14 11.13 7.25001 11.07 7.37001C11.02 7.49001 11 7.62002 11 7.75002C11 8.01002 11.1 8.27004 11.29 8.46004C11.39 8.55004 11.49 8.62 11.62 8.67C11.99 8.83 12.43 8.74004 12.71 8.46004C12.8 8.36004 12.87 8.26002 12.92 8.13002C12.97 8.01002 13 7.88002 13 7.75002C13 7.62002 12.97 7.49001 12.92 7.37001C12.87 7.25001 12.8 7.14 12.71 7.04C12.52 6.85 12.27 6.75002 12 6.75002Z" fill="#4378FF"/>
</svg>
