<svg width="56" height="56" viewBox="0 0 56 56" fill="none" xmlns="http://www.w3.org/2000/svg">
<path d="M52 36.4464L51.691 33.4592C51.073 27.794 49.2189 23.2618 46.4378 19.7597C43.8627 16.5665 40.5665 14.1974 36.4464 12.5494V4L33.4592 4.30901C27.794 4.92704 23.2618 6.78112 19.7597 9.56223C16.5665 12.1373 14.1974 15.4335 12.5494 19.5536H4L4.30901 22.5408C4.92704 28.206 6.78112 32.7382 9.56223 36.2403C12.1373 39.4335 15.4335 41.8026 19.5536 43.4506V52L22.5408 51.691C28.206 51.073 32.7382 49.2189 36.2403 46.4378C39.4335 43.8627 41.8026 40.5665 43.4506 36.4464H52ZM33.0472 42.3176C30.8841 44.0687 28.206 45.3047 24.9099 46.0258V28.515H19.5536V37.8884C17.1846 36.6524 15.2275 35.1073 13.6824 33.1502C11.9313 30.9871 10.6953 28.309 9.97425 25.0129H27.588V19.7597H18.2146C19.4506 17.3906 20.9957 15.4335 22.9528 13.8884C25.1159 12.1373 27.794 10.9013 31.0901 10.1803V28H36.3433V18.4206C38.7124 19.6567 40.6695 21.2017 42.2146 23.1588C43.9657 25.3219 45.2017 28 45.9227 31.2961H28.515V36.5494H37.6824C36.5494 38.8155 35.0043 40.7725 33.0472 42.3176Z" fill="#339851"/>
</svg>
