<svg width="56" height="56" viewBox="0 0 56 56" fill="none" xmlns="http://www.w3.org/2000/svg">
<path d="M36.6387 10.087C33.6193 10.087 30.6 10.8696 28 12.4348C25.4 10.8696 22.3806 10 19.3613 10C9.8 10 2 18.087 2 28C2 37.913 9.8 46 19.3613 46C22.3806 46 25.4 45.1304 28 43.5652C30.6 45.1304 33.6193 45.913 36.6387 45.913C46.2 45.913 54 37.8261 54 27.913C54 18.087 46.2 10.087 36.6387 10.087ZM13.9097 28C13.6581 28.7826 13.5742 29.5652 13.5742 30.3478C13.5742 34.6087 16.929 38.087 21.0387 38.087C23.7226 38.087 26.1548 36.6087 27.4968 34.2609L27.5806 34.1739C27.6645 34 27.7484 33.8261 27.8322 33.6522L32.3613 24.5217L32.4452 24.3478C32.9484 23.3913 33.871 22.7826 34.9613 22.7826C36.471 22.7826 37.729 24.087 37.729 25.6522V25.7391V25.8261C37.729 27.0435 37.1419 29.6522 33.3677 33.5652C28.5871 38.6087 24.1419 40.1739 24.1419 40.2609C22.6323 40.9565 20.9548 41.2174 19.2774 41.2174C12.2323 41.2174 6.52903 35.3044 6.52903 28C6.52903 20.6957 12.2323 14.7826 19.2774 14.7826C20.6193 14.7826 21.8774 14.9565 23.1355 15.3913C18.3548 19.3913 15.2516 23.6522 13.9097 28ZM42.0064 28.087C42.2581 27.3043 42.3419 26.5217 42.3419 25.6522C42.3419 21.3913 38.9871 17.913 34.8774 17.913C32.2774 17.913 29.7613 19.3913 28.4194 21.7391L28.3355 22C28.2516 22.087 28.1677 22.2609 28.1677 22.3478L23.471 31.8261C22.9677 32.7826 22.0452 33.3043 21.0387 33.3043C19.529 33.3043 18.271 32 18.271 30.4348V30.3478C18.271 29.1304 18.9419 26.5217 22.6322 22.5217C27.4129 17.4783 31.7742 16 31.8581 16C33.4516 15.3044 35.0452 14.9565 36.8064 14.9565C43.8516 14.9565 49.5548 20.8696 49.5548 28.1739C49.5548 35.4783 43.8516 41.3913 36.8064 41.3913C35.4645 41.3913 34.1226 41.2174 32.8645 40.7826C37.6451 36.6957 40.7484 32.5217 42.0064 28.087Z" fill="#EB5F0A"/>
</svg>
